<svg width="512" height="512" viewBox="0 0 512 512" fill="none" xmlns="http://www.w3.org/2000/svg">
<path d="M475.993 254.299C475.828 232.96 464.464 214.427 447.603 203.927C452.485 195.159 455.458 185.196 455.375 174.456C455.168 147.677 437.438 123.173 413.153 114.891C413.122 114.596 421.867 88.177 399.899 66.522C392.291 59.041 382.291 53.968 371.17 52.554C362.888 29.077 340.385 9.341 314.096 9.544C280.957 9.8 254.329 39.867 254.585 73.006C254.329 39.867 227.239 10.216 194.1 10.472C167.811 10.675 145.615 30.757 137.698 54.359C126.6 55.945 116.68 61.172 109.189 68.77C87.894 90.42 96.683 117.237 96.684 117.338C72.53 125.995 55.181 150.77 55.388 177.549C55.471 188.289 58.598 198.205 63.615 206.896C46.918 217.655 35.842 236.362 36.007 257.701C36.122 272.609 41.934 289.679 51.909 300.579C42.411 311.283 36.529 325.259 36.649 340.698C36.792 359.247 45.519 375.56 58.833 386.468C57.778 391.006 57.074 395.672 57.112 400.542C57.368 433.681 84.458 463.332 117.597 463.076C119.867 463.058 122.024 462.622 124.222 462.355C135.527 486.228 159.755 502.752 187.904 502.534C226.563 502.235 257.636 467.654 257.338 428.995C257.637 467.654 289.241 501.751 327.9 501.452C356.049 501.234 380.019 484.339 390.954 460.293C393.156 460.526 395.319 460.929 397.589 460.912C430.728 460.656 457.356 430.589 457.1 397.45C457.062 392.58 456.286 387.926 455.161 383.405C468.306 372.293 476.779 355.847 476.635 337.298C476.516 321.858 470.418 307.975 460.756 297.42C470.569 286.356 476.109 269.192 475.993 254.299Z" fill="#B88E9B"/>
<path d="M26 339C26 357.616 33.548 375.35 46.899 388.518C40.035 430.01 73.125 472 116 472C116.31 472 116.615 471.995 116.914 471.986C131.129 496.508 157.515 512 186 512C215.688 512 242.216 494.18 256 468.506C269.784 494.18 296.312 512 326 512C354.485 512 380.871 496.508 395.086 471.986C395.386 471.995 395.69 472 396 472C433.944 472 466 438.57 466 399C466 395.631 465.704 392.166 465.101 388.518C478.452 375.35 486 357.617 486 339C486 324.644 481.475 310.671 473.123 298.882C481.706 286 486 269.927 486 256C486 235.004 476.673 215.497 460.668 202.269C464.21 193.805 466 185.002 466 176C466 148.145 449.744 122.197 425.575 110.08C429.242 79.666 409.424 51.788 380.055 44.677C368.56 18.104 342.975 0 316 0C290.89 0 268.369 14.646 256 36.016C243.63 14.646 221.109 0 196 0C169.023 0 143.438 18.104 131.945 44.678C102.4 51.834 82.768 79.851 86.425 110.08C62.257 122.196 46 148.145 46 176C46 185.002 47.79 193.805 51.332 202.269C35.327 215.498 26 235.004 26 256C26 270 30.33 286.052 38.877 298.881C30.525 310.671 26 324.644 26 339ZM316 20C333.256 20 347.92 30.624 356.739 43.714C344.235 45.64 332.697 51.452 323.573 60.565C319.665 64.468 319.661 70.799 323.564 74.707C327.467 78.615 333.8 78.618 337.706 74.715C345.271 67.161 355.318 63 366 63C387.993 63 406 80.787 406 103C406 103.264 405.98 103.521 405.975 103.784C402.678 103.271 399.348 103 396 103C358.056 103 326 136.43 326 176C326 181.523 330.478 186 336 186C341.522 186 346 181.523 346 176C346 147.767 369.364 123 396 123C423.982 123 446 148.997 446 176C446 184.403 443.746 192.639 439.301 200.478C436.671 205.117 438.144 211.004 442.649 213.858C457.271 223.121 466 238.875 466 256C466 284.331 443.059 309 416 309C410.478 309 406 313.477 406 319C406 324.523 410.478 329 416 329C431.75 329 446.669 323.097 458.663 313.271C463.435 321.054 466 329.93 466 339C466 353.671 459.356 367.614 447.773 377.253C444.845 379.689 443.556 383.576 444.447 387.278C445.507 391.681 446 395.406 446 398.999C446 430.039 417.925 455.125 392.613 451.665C391.91 451.569 391.206 451.474 390.499 451.394C386.212 450.909 382.111 453.215 380.3 457.12C370.466 478.309 349.151 492 326 492C293.477 492 266 463.149 266 429C266 395.916 292.916 369 326 369C331.522 369 336 364.523 336 359C336 353.477 331.522 349 326 349C302.123 349 280.671 359.528 266 376.169V186C266 174.972 274.972 166 286 166C291.522 166 296 161.523 296 156C296 150.477 291.522 146 286 146C278.717 146 271.888 147.966 266 151.381V73C266 44.766 289.364 20 316 20ZM69.352 213.858C73.857 211.004 75.33 205.117 72.699 200.478C68.254 192.639 66 184.403 66 176C66 149.01 88.002 123 116 123C142.636 123 166 147.767 166 176C166 181.523 170.477 186 176 186C181.523 186 186 181.523 186 176C186 136.43 153.944 103 116 103C112.652 103 109.322 103.271 106.025 103.784C106.02 103.521 106 103.265 106 103C106 80.683 124.117 63 146 63C156.682 63 166.73 67.161 174.292 74.715C178.199 78.618 184.53 78.614 188.434 74.708C192.337 70.8 192.334 64.469 188.427 60.566C179.304 51.453 167.765 45.641 155.26 43.715C164.079 30.624 178.744 20 196 20C222.636 20 246 44.766 246 73V151.381C240.112 147.966 233.283 146 226 146C220.477 146 216 150.477 216 156C216 161.523 220.477 166 226 166C237.028 166 246 174.972 246 186V376.169C231.329 359.528 209.877 349 186 349C180.477 349 176 353.477 176 359C176 364.523 180.477 369 186 369C219.084 369 246 395.916 246 429C246 463.149 218.523 492 186 492C162.848 492 141.535 478.309 131.701 457.12C129.888 453.215 125.782 450.912 121.501 451.394C120.794 451.475 120.091 451.569 119.388 451.665C90.928 455.557 58.878 423.33 67.554 387.278C68.445 383.575 67.155 379.689 64.228 377.253C52.644 367.614 46 353.671 46 339C46 329.929 48.565 321.052 53.338 313.268C65.332 323.098 80.251 329 96 329C101.523 329 106 324.523 106 319C106 313.477 101.523 309 96 309C68.861 309 46 284.23 46 256C46 238.875 54.729 223.121 69.352 213.858Z" fill="black"/>
</svg>
