<svg width="29" height="26" viewBox="0 0 29 26" fill="none" xmlns="http://www.w3.org/2000/svg">
<path d="M11.0733 25.218C10.3474 25.2194 9.64086 24.9846 9.06009 24.5493L9.02408 24.5223L1.44232 18.7174C0.733188 18.1741 0.268932 17.3713 0.1517 16.4857C0.0344682 15.6 0.273857 14.7041 0.817197 13.995C1.36054 13.2858 2.16332 12.8216 3.04895 12.7044C3.93458 12.5871 4.83051 12.8265 5.53964 13.3699L10.4505 17.1354L22.0558 2.00056C22.3249 1.64952 22.6605 1.35495 23.0435 1.13364C23.4265 0.912335 23.8494 0.768621 24.2879 0.710732C24.7265 0.652843 25.1721 0.681898 25.5995 0.796242C26.0268 0.910587 26.4273 1.10797 26.7783 1.37714L26.7062 1.47517L26.7802 1.37861C27.4883 1.92281 27.9516 2.72566 28.0684 3.61103C28.1853 4.4964 27.9463 5.39197 27.4037 6.10127L13.7531 23.9035C13.4374 24.3137 13.0314 24.6457 12.5667 24.8737C12.102 25.1016 11.5909 25.2194 11.0733 25.218V25.218Z" fill="#9F99FF"/>
</svg>
