<svg width="396" height="347" viewBox="0 0 396 347" fill="none" xmlns="http://www.w3.org/2000/svg">
<path d="M290.372 15.025H105.746L13.433 174.916L105.746 334.807H290.372L382.685 174.916L290.372 15.025Z" fill="#6C63FF"/>
<path d="M121.2 308.039H274.918L351.777 174.916L274.918 41.7924H121.2L44.3412 174.916L121.2 308.039Z" fill="white"/>
<path d="M140.701 41.5944H138.701V124.15H140.701V41.5944Z" fill="#3F3D56"/>
<path d="M139.701 134.587C142.846 134.587 145.395 132.038 145.395 128.894C145.395 125.75 142.846 123.201 139.701 123.201C136.557 123.201 134.008 125.75 134.008 128.894C134.008 132.038 136.557 134.587 139.701 134.587Z" fill="#6C63FF"/>
<path d="M183.402 41.5944H181.402V124.15H183.402V41.5944Z" fill="#3F3D56"/>
<path d="M182.402 134.587C185.546 134.587 188.095 132.038 188.095 128.894C188.095 125.75 185.546 123.201 182.402 123.201C179.258 123.201 176.709 125.75 176.709 128.894C176.709 132.038 179.258 134.587 182.402 134.587Z" fill="#3F3D56"/>
<path d="M258.366 41.5944H256.366V124.15H258.366V41.5944Z" fill="#3F3D56"/>
<path d="M257.366 134.587C260.51 134.587 263.059 132.038 263.059 128.894C263.059 125.75 260.51 123.201 257.366 123.201C254.221 123.201 251.672 125.75 251.672 128.894C251.672 132.038 254.221 134.587 257.366 134.587Z" fill="#3F3D56"/>
<path d="M226.052 216.193C229.196 216.193 231.745 213.644 231.745 210.5C231.745 207.356 229.196 204.807 226.052 204.807C222.907 204.807 220.358 207.356 220.358 210.5C220.358 213.644 222.907 216.193 226.052 216.193Z" fill="#3F3D56"/>
<path d="M110.285 164.004C113.43 164.004 115.979 161.455 115.979 158.31C115.979 155.166 113.43 152.617 110.285 152.617C107.141 152.617 104.592 155.166 104.592 158.31C104.592 161.455 107.141 164.004 110.285 164.004Z" fill="#3F3D56"/>
<path d="M227.052 205.755H225.052V106.276H182.402V104.276H227.052V205.755Z" fill="#3F3D56"/>
<path d="M152.986 252.252C156.13 252.252 158.679 249.703 158.679 246.558C158.679 243.414 156.13 240.865 152.986 240.865C149.842 240.865 147.292 243.414 147.292 246.558C147.292 249.703 149.842 252.252 152.986 252.252Z" fill="#6C63FF"/>
<path d="M153.986 241.814H151.986V142.334H109.336V140.334H153.986V241.814Z" fill="#3F3D56"/>
<path d="M284.884 207.653C288.028 207.653 290.577 205.104 290.577 201.96C290.577 198.815 288.028 196.266 284.884 196.266C281.74 196.266 279.191 198.815 279.191 201.96C279.191 205.104 281.74 207.653 284.884 207.653Z" fill="#6C63FF"/>
<path d="M285.884 197.215H283.884V97.736H256.417V95.736H285.884V197.215Z" fill="#3F3D56"/>
<path d="M111.285 152.616H109.285V103.155H139.701V105.155H111.285V152.616Z" fill="#3F3D56"/>
<path d="M182.876 274.551C186.021 274.551 188.57 272.002 188.57 268.858C188.57 265.713 186.021 263.164 182.876 263.164C179.732 263.164 177.183 265.713 177.183 268.858C177.183 272.002 179.732 274.551 182.876 274.551Z" fill="#3F3D56"/>
<path d="M183.876 263.164H181.876V215.703H153.46V213.703H183.876V263.164Z" fill="#3F3D56"/>
<path d="M255.468 232.325C258.612 232.325 261.161 229.776 261.161 226.631C261.161 223.487 258.612 220.938 255.468 220.938C252.323 220.938 249.774 223.487 249.774 226.631C249.774 229.776 252.323 232.325 255.468 232.325Z" fill="#3F3D56"/>
<path d="M256.468 220.938H254.468V171.477H284.884V173.477H256.468V220.938Z" fill="#3F3D56"/>
</svg>
