<svg width="595" height="595" viewBox="0 0 595 595" fill="none" xmlns="http://www.w3.org/2000/svg">
<g id="undraw_time_management_30iu 1">
<g id="mainclock">
<path id="Vector" opacity="0.1" d="M161.379 320.205C161.379 242.055 224.729 178.705 302.879 178.705C324.814 178.686 346.452 183.774 366.079 193.567C385.707 203.36 402.784 217.588 415.959 235.125C391.879 191.365 345.379 161.705 291.879 161.705C213.729 161.705 150.379 225.055 150.379 303.205C150.333 333.906 160.318 363.781 178.814 388.285C167.344 367.429 161.346 344.007 161.379 320.205V320.205Z" fill="black"/>
<path id="Vector_2" opacity="0.1" d="M114.522 148.046C111.488 149.33 108.375 150.978 106.708 153.867C104.942 156.918 105.154 160.708 105.482 164.239C108.347 194.862 115.893 227.43 102.862 255.169C96.5366 268.627 85.9567 279.411 77.5417 291.633C69.1266 303.854 62.773 319.113 66.68 333.491C71.4511 351.059 89.2579 360.798 101.261 374.318C109.117 383.157 114.625 393.899 121.956 403.198C129.286 412.497 139.33 420.689 151.033 421.235C167.863 422.026 181.556 407.198 198.057 403.763C214.963 400.246 231.985 409.196 245.693 419.908C259.4 430.621 271.868 443.599 287.838 450.287C305.476 457.679 325.359 456.549 343.926 460.99C360.832 465.038 376.394 473.647 393.177 478.237C409.96 482.827 429.631 482.549 442.634 470.826C459.582 455.495 458.248 428.187 469.072 407.907C479.126 389.065 498.807 377.816 512.054 361.158C535.89 331.177 535.111 285.352 514.872 252.745C494.632 220.139 457.971 200.395 420.484 195.255C403.579 192.941 386.171 193.257 369.918 187.992C326.415 173.907 300.527 123.44 256.113 112.938C227.881 106.274 200.424 117.815 176.376 132.02C155.503 144.352 136.245 138.852 114.522 148.046Z" fill="#6C63FF"/>
<path id="Vector_3" d="M291.889 484.205C391.853 484.205 472.889 403.169 472.889 303.205C472.889 203.241 391.853 122.205 291.889 122.205C191.926 122.205 110.889 203.241 110.889 303.205C110.889 403.169 191.926 484.205 291.889 484.205Z" fill="url(#paint0_linear)"/>
<path id="Vector_4" d="M291.889 481.205C390.196 481.205 469.889 401.512 469.889 303.205C469.889 204.898 390.196 125.205 291.889 125.205C193.583 125.205 113.889 204.898 113.889 303.205C113.889 401.512 193.583 481.205 291.889 481.205Z" fill="#6C63FF"/>
<path id="Vector_5" d="M291.889 444.705C370.038 444.705 433.389 381.353 433.389 303.205C433.389 225.057 370.038 161.705 291.889 161.705C213.741 161.705 150.389 225.057 150.389 303.205C150.389 381.353 213.741 444.705 291.889 444.705Z" fill="#DDE1EC"/>
<path id="Vector_6" opacity="0.1" d="M291.889 320.205C300.174 320.205 306.889 313.489 306.889 305.205C306.889 296.921 300.174 290.205 291.889 290.205C283.605 290.205 276.889 296.921 276.889 305.205C276.889 313.489 283.605 320.205 291.889 320.205Z" fill="black"/>
</g>
<g id="seconds">
<path id="Vector_7" opacity="0.3" d="M295.889 186.705H287.889V311.705H295.889V186.705Z" fill="#535461"/>
</g>
<g id="minutes">
<path id="Vector_8" d="M409 309H298V299H409V309Z" fill="#535461" fill-opacity="0.8"/>
</g>
<g id="hour">
<path id="Vector_9" opacity="0.1" d="M220.61 262.792L215.971 271.651L287.072 308.885L291.711 300.026L220.61 262.792Z" fill="black"/>
<path id="Vector_10" d="M291.744 298.037L220.643 260.804L216.004 269.662L287.105 306.896L291.744 298.037Z" fill="#535461"/>
</g>
<g id="center">
<path id="Vector_11" d="M291.889 318.205C300.174 318.205 306.889 311.489 306.889 303.205C306.889 294.921 300.174 288.205 291.889 288.205C283.605 288.205 276.889 294.921 276.889 303.205C276.889 311.489 283.605 318.205 291.889 318.205Z" fill="#535461"/>
</g>
</g>
<defs>
<linearGradient id="paint0_linear" x1="291.889" y1="484.205" x2="291.889" y2="122.205" gradientUnits="userSpaceOnUse">
<stop stop-color="#808080" stop-opacity="0.25"/>
<stop offset="0.54" stop-color="#808080" stop-opacity="0.12"/>
<stop offset="1" stop-color="#808080" stop-opacity="0.1"/>
</linearGradient>
</defs>
</svg>
