<svg width="499" height="499" viewBox="0 0 499 499" fill="none" xmlns="http://www.w3.org/2000/svg">
<g id="undraw_time_management_30iu 1">
<g id="mainclock">
<path id="Vector" opacity="0.1" d="M112.879 272.205C112.879 194.055 176.229 130.705 254.379 130.705C276.314 130.686 297.952 135.774 317.579 145.567C337.207 155.36 354.284 169.588 367.459 187.125C343.379 143.365 296.879 113.705 243.379 113.705C165.229 113.705 101.879 177.055 101.879 255.205C101.833 285.906 111.818 315.781 130.314 340.285C118.844 319.429 112.846 296.007 112.879 272.205V272.205Z" fill="black"/>
<path id="Vector_2" opacity="0.1" d="M66.0219 100.046C62.9884 101.33 59.875 102.978 58.2079 105.867C56.4423 108.918 56.6536 112.708 56.9823 116.239C59.8468 146.862 67.3931 179.43 54.362 207.169C48.0366 220.627 37.4567 231.411 29.0417 243.633C20.6266 255.854 14.273 271.113 18.18 285.491C22.9511 303.059 40.7579 312.798 52.7607 326.318C60.6169 335.157 66.1252 345.899 73.4556 355.198C80.7859 364.497 90.8304 372.689 102.533 373.235C119.363 374.026 133.056 359.198 149.557 355.763C166.463 352.246 183.485 361.196 197.193 371.908C210.9 382.621 223.368 395.599 239.338 402.287C256.976 409.679 276.859 408.549 295.426 412.99C312.332 417.038 327.894 425.647 344.677 430.237C361.46 434.827 381.131 434.549 394.134 422.826C411.082 407.495 409.748 380.187 420.572 359.907C430.626 341.065 450.307 329.816 463.554 313.158C487.39 283.177 486.611 237.352 466.372 204.745C446.132 172.139 409.471 152.395 371.984 147.255C355.079 144.941 337.671 145.257 321.418 139.992C277.915 125.907 252.027 75.4397 207.613 64.9382C179.381 58.2741 151.924 69.8153 127.876 84.0202C107.003 96.3519 87.7452 90.852 66.0219 100.046Z" fill="#6C63FF"/>
<path id="Vector_3" d="M243.389 436.205C343.353 436.205 424.389 355.169 424.389 255.205C424.389 155.241 343.353 74.205 243.389 74.205C143.426 74.205 62.3893 155.241 62.3893 255.205C62.3893 355.169 143.426 436.205 243.389 436.205Z" fill="url(#paint0_linear)"/>
<path id="Vector_4" d="M243.389 433.205C341.696 433.205 421.389 353.512 421.389 255.205C421.389 156.898 341.696 77.205 243.389 77.205C145.083 77.205 65.3893 156.898 65.3893 255.205C65.3893 353.512 145.083 433.205 243.389 433.205Z" fill="#6C63FF"/>
<path id="Vector_5" d="M243.389 396.705C321.538 396.705 384.889 333.353 384.889 255.205C384.889 177.057 321.538 113.705 243.389 113.705C165.241 113.705 101.889 177.057 101.889 255.205C101.889 333.353 165.241 396.705 243.389 396.705Z" fill="#DDE1EC"/>
<path id="Vector_6" opacity="0.1" d="M243.389 272.205C251.674 272.205 258.389 265.489 258.389 257.205C258.389 248.921 251.674 242.205 243.389 242.205C235.105 242.205 228.389 248.921 228.389 257.205C228.389 265.489 235.105 272.205 243.389 272.205Z" fill="black"/>
</g>
<g id="seconds">
<path id="Vector_7" opacity="0.3" d="M247.389 138.705H239.389V263.705H247.389V138.705Z" fill="#535461"/>
</g>
<g id="minutes">
<path id="Vector_8" d="M360.5 261H249.5V251H360.5V261Z" fill="#535461" fill-opacity="0.8"/>
</g>
<g id="hour">
<path id="Vector_9" opacity="0.1" d="M172.11 214.792L167.471 223.651L238.572 260.885L243.211 252.026L172.11 214.792Z" fill="black"/>
<path id="Vector_10" d="M243.244 250.037L172.143 212.804L167.504 221.662L238.605 258.896L243.244 250.037Z" fill="#535461"/>
</g>
<g id="center">
<path id="Vector_11" d="M243.389 270.205C251.674 270.205 258.389 263.489 258.389 255.205C258.389 246.921 251.674 240.205 243.389 240.205C235.105 240.205 228.389 246.921 228.389 255.205C228.389 263.489 235.105 270.205 243.389 270.205Z" fill="#535461"/>
</g>
</g>
<defs>
<linearGradient id="paint0_linear" x1="243.389" y1="436.205" x2="243.389" y2="74.205" gradientUnits="userSpaceOnUse">
<stop stop-color="#808080" stop-opacity="0.25"/>
<stop offset="0.54" stop-color="#808080" stop-opacity="0.12"/>
<stop offset="1" stop-color="#808080" stop-opacity="0.1"/>
</linearGradient>
</defs>
</svg>
