<svg width="220" height="315" viewBox="0 0 220 315" fill="none" xmlns="http://www.w3.org/2000/svg">
<g id="undraw_modern_design_v3wv 1">
<g id="phone">
<path id="Vector" d="M185.938 77.0778H184.274V31.4235C184.274 27.9535 183.592 24.5175 182.267 21.3116C180.942 18.1058 178.999 15.1929 176.551 12.7392C174.102 10.2856 171.195 8.33925 167.995 7.01135C164.796 5.68345 161.367 4.99999 157.903 5H61.371C57.9079 4.99999 54.4787 5.68345 51.2792 7.01135C48.0798 8.33925 45.1727 10.2856 42.7239 12.7392C40.2751 15.1929 38.3326 18.1058 37.0074 21.3117C35.6821 24.5175 35 27.9535 35 31.4235V281.887C35 285.357 35.6821 288.793 37.0074 291.998C38.3326 295.204 40.2751 298.117 42.7239 300.571C45.1727 303.024 48.0798 304.971 51.2792 306.299C54.4787 307.627 57.9079 308.31 61.371 308.31H157.903C161.367 308.31 164.796 307.627 167.995 306.299C171.195 304.971 174.102 303.024 176.551 300.571C178.999 298.117 180.942 295.204 182.267 291.998C183.592 288.793 184.274 285.357 184.274 281.887V109.575H185.938V77.0778Z" fill="#3F3D56"/>
</g>
<g id="on_screen">
<path id="Vector_2" d="M158.968 11.8745H146.367C146.946 13.298 147.167 14.8425 147.011 16.3718C146.854 17.9011 146.325 19.3684 145.469 20.6444C144.613 21.9204 143.457 22.9659 142.103 23.6889C140.749 24.4118 139.238 24.79 137.704 24.7902H82.4019C80.8676 24.79 79.3568 24.4118 78.0028 23.6889C76.6487 22.9659 75.4928 21.9204 74.637 20.6444C73.7812 19.3684 73.2516 17.9011 73.0951 16.3718C72.9385 14.8424 73.1597 13.298 73.7392 11.8745H61.9701C59.3839 11.8745 56.8231 12.3849 54.4337 13.3765C52.0444 14.3682 49.8734 15.8217 48.0447 17.6541C46.216 19.4864 44.7654 21.6617 43.7757 24.0558C42.786 26.4499 42.2766 29.0159 42.2766 31.6072V281.703C42.2766 284.294 42.786 286.86 43.7757 289.254C44.7654 291.648 46.216 293.824 48.0447 295.656C49.8734 297.488 52.0444 298.942 54.4337 299.933C56.8231 300.925 59.3839 301.436 61.9701 301.436H158.968C161.554 301.436 164.115 300.925 166.504 299.933C168.893 298.942 171.064 297.488 172.893 295.656C174.722 293.824 176.172 291.648 177.162 289.254C178.152 286.86 178.661 284.294 178.661 281.703V31.6072C178.661 29.0159 178.152 26.4499 177.162 24.0558C176.172 21.6617 174.722 19.4864 172.893 17.6541C171.064 15.8217 168.893 14.3682 166.504 13.3766C164.115 12.3849 161.554 11.8745 158.968 11.8745V11.8745Z" fill="white"/>
<path id="Vector_3" d="M123.954 79.0604H89.5733V82.2595H123.954V79.0604Z" fill="#6C63FF"/>
<path id="Vector_4" d="M149.496 90.1272H89.5733V93.3263H149.496V90.1272Z" fill="#E6E6E6"/>
<path id="Vector_5" d="M149.438 101.194H89.5733V104.393H149.438V101.194Z" fill="#E6E6E6"/>
<path id="Vector_6" d="M82.4483 79.1078H56.9061V104.701H82.4483V79.1078Z" fill="#6C63FF"/>
<path id="Vector_7" d="M123.954 146.242H89.5733V149.441H123.954V146.242Z" fill="#6C63FF"/>
<path id="Vector_8" d="M149.496 157.309H89.5733V160.508H149.496V157.309Z" fill="#E6E6E6"/>
<path id="Vector_9" d="M149.438 168.376H89.5733V171.575H149.438V168.376Z" fill="#E6E6E6"/>
<path id="Vector_10" d="M82.4483 146.29H56.9061V171.883H82.4483V146.29Z" fill="#6C63FF"/>
<path id="Vector_11" d="M123.954 213.424H89.5733V216.623H123.954V213.424Z" fill="#6C63FF"/>
<path id="Vector_12" d="M149.496 224.491H89.5733V227.69H149.496V224.491Z" fill="#E6E6E6"/>
<path id="Vector_13" d="M149.438 235.557H89.5733V238.757H149.438V235.557Z" fill="#E6E6E6"/>
<path id="Vector_14" d="M82.4483 213.471H56.9061V239.064H82.4483V213.471Z" fill="#6C63FF"/>
</g>
<g id="off_screen">
<path id="Vector_15" d="M159.05 11.5149H146.381C146.963 12.9418 147.186 14.4899 147.028 16.0229C146.871 17.5559 146.339 19.0266 145.478 20.3056C144.618 21.5846 143.455 22.6326 142.094 23.3573C140.732 24.082 139.214 24.461 137.671 24.4612H82.0676C80.5249 24.461 79.006 24.082 77.6445 23.3573C76.2831 22.6326 75.1209 21.5846 74.2604 20.3056C73.3999 19.0266 72.8675 17.5558 72.7101 16.0229C72.5527 14.4899 73.6778 12.9418 74.2604 11.5149L61.5246 11.5149C58.9244 11.5149 56.3495 12.0265 53.9472 13.0205C51.5449 14.0145 49.3621 15.4715 47.5234 17.3082C45.6847 19.1449 44.2262 21.3253 43.2311 23.7251C42.236 26.1248 41.7239 28.6969 41.7239 31.2943V281.982C41.7239 284.579 42.236 287.151 43.2311 289.551C44.2262 291.951 45.6847 294.131 47.5234 295.968C49.3621 297.805 51.5449 299.262 53.9472 300.256C56.3495 301.25 58.9244 301.761 61.5246 301.761H159.05C161.65 301.761 164.225 301.25 166.627 300.256C169.03 299.262 171.213 297.805 173.051 295.968C174.89 294.131 176.348 291.951 177.343 289.551C178.339 287.151 178.851 284.579 178.851 281.982V31.2944C178.851 28.6969 178.339 26.1248 177.343 23.7251C176.348 21.3253 174.89 19.1449 173.051 17.3082C171.213 15.4715 169.03 14.0146 166.627 13.0206C164.225 12.0265 161.65 11.5149 159.05 11.5149Z" fill="#383838"/>
</g>
<g id="off_logo">
<path id="Vector_16" d="M121.015 127.15C117.2 127.154 113.416 126.466 109.843 125.12C109.638 125.043 109.451 124.926 109.292 124.776C109.132 124.626 109.003 124.446 108.913 124.246C108.823 124.046 108.772 123.83 108.765 123.61C108.757 123.39 108.793 123.171 108.87 122.966C108.946 122.76 109.062 122.571 109.211 122.411C109.36 122.25 109.539 122.12 109.738 122.03C109.937 121.939 110.151 121.888 110.369 121.88C110.588 121.873 110.805 121.909 111.01 121.986C115.747 123.749 120.859 124.237 125.841 123.402C130.822 122.567 135.502 120.439 139.417 117.226C127.205 117.357 115.259 111.546 109.316 102.222C105.496 96.2284 104.247 89.1754 105.703 81.8254C106.818 76.4955 109.107 71.4856 112.402 67.1652C106.112 69.1803 100.698 73.3069 97.0652 78.856C93.4322 84.405 91.7996 91.0408 92.44 97.6556C92.4623 97.8748 92.4414 98.0962 92.3785 98.3072C92.3157 98.5182 92.2121 98.7146 92.0737 98.8852C91.9353 99.0558 91.7648 99.1972 91.572 99.3013C91.3792 99.4054 91.1679 99.4702 90.9502 99.4919C90.7325 99.5137 90.5126 99.4919 90.3033 99.4279C90.0939 99.3639 89.8992 99.259 89.7302 99.119C89.5612 98.9791 89.4214 98.807 89.3186 98.6125C89.2158 98.4181 89.1522 98.2051 89.1314 97.9858C88.3238 89.6635 90.7448 81.3492 95.8877 74.7834C101.031 68.2175 108.497 63.9091 116.723 62.7598C117.067 62.7116 117.417 62.7731 117.725 62.9356C118.032 63.0981 118.281 63.3535 118.437 63.6659C118.593 63.9783 118.648 64.332 118.594 64.6774C118.54 65.0228 118.38 65.3425 118.137 65.5917C109.634 74.2871 104.474 88.4267 112.114 100.414C118.142 109.871 131.112 115.28 143.66 113.57C143.997 113.524 144.34 113.583 144.642 113.739C144.944 113.895 145.192 114.141 145.351 114.443C145.511 114.745 145.574 115.089 145.534 115.428C145.493 115.768 145.35 116.087 145.124 116.342C142.086 119.748 138.368 122.471 134.214 124.334C130.06 126.196 125.563 127.156 121.015 127.15V127.15Z" fill="#6C63FF"/>
<path id="Vector_17" d="M94.5246 127.521C92.1116 127.521 89.7527 126.804 87.7463 125.462C85.7399 124.12 84.1761 122.212 83.2527 119.98C82.3292 117.748 82.0876 115.292 82.5584 112.922C83.0291 110.553 84.1912 108.377 85.8975 106.668C87.6038 104.96 89.7777 103.797 92.1444 103.325C94.5111 102.854 96.9643 103.096 99.1937 104.02C101.423 104.945 103.329 106.51 104.669 108.519C106.01 110.528 106.725 112.89 106.725 115.306C106.722 118.544 105.435 121.649 103.148 123.939C100.861 126.229 97.7594 127.517 94.5246 127.521V127.521ZM94.5246 106.422C92.7697 106.422 91.0542 106.943 89.595 107.919C88.1358 108.895 86.9985 110.283 86.3269 111.906C85.6553 113.529 85.4795 115.315 85.8219 117.039C86.1643 118.762 87.0094 120.345 88.2503 121.587C89.4913 122.83 91.0723 123.676 92.7936 124.018C94.5148 124.361 96.2989 124.185 97.9203 123.513C99.5417 122.841 100.927 121.702 101.902 120.241C102.877 118.78 103.398 117.063 103.398 115.306C103.395 112.95 102.459 110.692 100.796 109.027C99.1325 107.361 96.8772 106.425 94.5246 106.422V106.422Z" fill="#6C63FF"/>
</g>
</g>
</svg>
