<svg width="402" height="402" viewBox="0 0 402 402" fill="none" xmlns="http://www.w3.org/2000/svg">
<g id="undraw_modern_design_v3wv 1">
<g id="phone">
<path id="Vector" d="M297.625 98.985H295.503V40.7214C295.503 36.293 294.632 31.908 292.941 27.8168C291.25 23.7255 288.771 20.0081 285.645 16.8767C282.52 13.7454 278.81 11.2615 274.727 9.56686C270.644 7.87221 266.268 6.99999 261.848 7H138.654C134.235 6.99999 129.859 7.87221 125.775 9.56687C121.692 11.2615 117.982 13.7454 114.857 16.8767C111.732 20.0081 109.253 23.7255 107.562 27.8168C105.87 31.908 105 36.293 105 40.7214V360.36C105 364.788 105.87 369.173 107.562 373.265C109.253 377.356 111.732 381.073 114.857 384.205C117.982 387.336 121.692 389.82 125.775 391.514C129.859 393.209 134.235 394.081 138.654 394.081H261.848C266.268 394.081 270.644 393.209 274.727 391.514C278.81 389.82 282.52 387.336 285.645 384.205C288.771 381.073 291.25 377.356 292.941 373.265C294.632 369.173 295.503 364.788 295.503 360.36V140.458H297.625V98.985Z" fill="#3F3D56"/>
</g>
<g id="on_screen">
<path id="Vector_2" d="M263.206 15.7732H247.125C247.865 17.5898 248.147 19.5608 247.947 21.5126C247.747 23.4643 247.072 25.3369 245.98 26.9653C244.887 28.5937 243.412 29.928 241.684 30.8506C239.956 31.7732 238.028 32.2558 236.07 32.256H165.494C163.536 32.2559 161.608 31.7732 159.88 30.8506C158.152 29.928 156.677 28.5937 155.584 26.9653C154.492 25.3369 153.816 23.4643 153.617 21.5126C153.417 19.5608 153.699 17.5898 154.439 15.7731H139.419C136.119 15.7731 132.85 16.4245 129.801 17.69C126.752 18.9556 123.981 20.8105 121.648 23.149C119.314 25.4874 117.462 28.2635 116.199 31.3188C114.936 34.3741 114.286 37.6488 114.286 40.9558V360.125C114.286 363.433 114.936 366.707 116.199 369.762C117.462 372.818 119.314 375.594 121.648 377.932C123.981 380.271 126.752 382.126 129.801 383.391C132.85 384.657 136.119 385.308 139.419 385.308H263.206C266.507 385.308 269.775 384.657 272.824 383.391C275.873 382.126 278.644 380.271 280.978 377.932C283.311 375.594 285.163 372.818 286.426 369.762C287.689 366.707 288.339 363.433 288.339 360.125V40.9559C288.339 37.6488 287.689 34.3742 286.426 31.3189C285.163 28.2635 283.311 25.4874 280.978 23.149C278.644 20.8106 275.873 18.9556 272.824 17.6901C269.775 16.4245 266.507 15.7731 263.206 15.7732V15.7732Z" fill="white"/>
<path id="Vector_3" d="M218.523 101.515H174.646V105.598H218.523V101.515Z" fill="#6C63FF"/>
<path id="Vector_4" d="M251.119 115.638H174.646V119.721H251.119V115.638Z" fill="#E6E6E6"/>
<path id="Vector_5" d="M251.044 129.762H174.646V133.845H251.044V129.762Z" fill="#E6E6E6"/>
<path id="Vector_6" d="M165.553 101.576H132.956V134.237H165.553V101.576Z" fill="#6C63FF"/>
<path id="Vector_7" d="M218.523 187.252H174.646V191.335H218.523V187.252Z" fill="#6C63FF"/>
<path id="Vector_8" d="M251.119 201.375H174.646V205.458H251.119V201.375Z" fill="#E6E6E6"/>
<path id="Vector_9" d="M251.044 215.499H174.646V219.581H251.044V215.499Z" fill="#E6E6E6"/>
<path id="Vector_10" d="M165.553 187.312H132.956V219.974H165.553V187.312Z" fill="#6C63FF"/>
<path id="Vector_11" d="M218.523 272.989H174.646V277.071H218.523V272.989Z" fill="#6C63FF"/>
<path id="Vector_12" d="M251.119 287.112H174.646V291.195H251.119V287.112Z" fill="#E6E6E6"/>
<path id="Vector_13" d="M251.044 301.235H174.646V305.318H251.044V301.235Z" fill="#E6E6E6"/>
<path id="Vector_14" d="M165.553 273.049H132.956V305.711H165.553V273.049Z" fill="#6C63FF"/>
</g>
<g id="off_screen">
<path id="Vector_15" d="M263.356 15.9753H247.276C248.015 17.792 248.297 19.763 248.098 21.7148C247.898 23.6665 247.222 25.539 246.13 27.1674C245.038 28.7958 243.563 30.1301 241.834 31.0528C240.106 31.9754 238.178 32.458 236.22 32.4582H165.644C163.686 32.458 161.758 31.9754 160.03 31.0528C158.302 30.1301 156.827 28.7958 155.735 27.1674C154.642 25.539 153.967 23.6665 153.767 21.7147C153.567 19.763 153.849 17.792 154.589 15.9753H139.569C136.269 15.9753 133.001 16.6267 129.951 17.8922C126.902 19.1578 124.132 21.0127 121.798 23.3511C119.464 25.6896 117.613 28.4657 116.35 31.521C115.087 34.5763 114.437 37.851 114.437 41.158V360.328C114.437 363.635 115.087 366.909 116.35 369.965C117.613 373.02 119.464 375.796 121.798 378.135C124.132 380.473 126.902 382.328 129.951 383.593C133.001 384.859 136.269 385.51 139.569 385.51H263.356C266.657 385.51 269.925 384.859 272.974 383.593C276.024 382.328 278.794 380.473 281.128 378.135C283.462 375.796 285.313 373.02 286.576 369.965C287.839 366.909 288.489 363.635 288.489 360.328V41.1581C288.489 37.851 287.839 34.5763 286.576 31.521C285.313 28.4657 283.462 25.6896 281.128 23.3512C278.794 21.0127 276.024 19.1578 272.974 17.8922C269.925 16.6267 266.657 15.9753 263.356 15.9753V15.9753Z" fill="#383838"/>
</g>
<g id="off_logo">
<path id="Vector_16" d="M214.772 162.887C209.903 162.891 205.074 162.014 200.514 160.296C200.253 160.198 200.014 160.049 199.81 159.857C199.607 159.666 199.442 159.436 199.327 159.181C199.212 158.925 199.148 158.649 199.138 158.369C199.129 158.089 199.174 157.809 199.272 157.547C199.369 157.284 199.518 157.043 199.708 156.838C199.898 156.633 200.126 156.468 200.38 156.352C200.634 156.236 200.907 156.171 201.186 156.162C201.464 156.152 201.742 156.198 202.003 156.296C208.048 158.546 214.572 159.169 220.93 158.104C227.288 157.038 233.26 154.322 238.256 150.222C222.671 150.389 207.426 142.973 199.842 131.074C194.966 123.425 193.372 114.424 195.231 105.044C196.654 98.2418 199.575 91.8483 203.78 86.3346C195.752 88.9063 188.843 94.1726 184.207 101.254C179.571 108.336 177.487 116.804 178.304 125.246C178.333 125.526 178.306 125.808 178.226 126.078C178.146 126.347 178.014 126.598 177.837 126.815C177.66 127.033 177.443 127.214 177.197 127.346C176.951 127.479 176.681 127.562 176.403 127.59C176.125 127.617 175.845 127.59 175.578 127.508C175.31 127.426 175.062 127.292 174.846 127.114C174.631 126.935 174.452 126.716 174.321 126.467C174.19 126.219 174.109 125.947 174.082 125.668C173.051 115.047 176.141 104.436 182.704 96.0569C189.268 87.6776 198.796 82.1792 209.294 80.7125C209.733 80.651 210.18 80.7295 210.573 80.9369C210.965 81.1443 211.283 81.4702 211.482 81.8689C211.681 82.2676 211.751 82.719 211.682 83.1598C211.613 83.6006 211.409 84.0086 211.098 84.3265C200.247 95.4236 193.662 113.468 203.412 128.767C211.105 140.835 227.657 147.738 243.672 145.556C244.101 145.498 244.538 145.573 244.924 145.772C245.31 145.971 245.626 146.285 245.829 146.67C246.033 147.055 246.114 147.494 246.062 147.928C246.011 148.361 245.828 148.768 245.54 149.094C241.662 153.441 236.918 156.916 231.616 159.293C226.315 161.669 220.575 162.894 214.772 162.887V162.887Z" fill="#6C63FF"/>
<path id="Vector_17" d="M180.965 163.36C177.885 163.36 174.875 162.445 172.314 160.732C169.754 159.02 167.758 156.585 166.58 153.736C165.401 150.888 165.093 147.754 165.694 144.73C166.294 141.706 167.777 138.928 169.955 136.748C172.132 134.568 174.907 133.083 177.927 132.482C180.948 131.88 184.078 132.189 186.923 133.369C189.768 134.549 192.2 136.547 193.911 139.11C195.622 141.674 196.535 144.688 196.535 147.771C196.531 151.904 194.889 155.866 191.97 158.789C189.051 161.711 185.093 163.355 180.965 163.36V163.36ZM180.965 136.434C178.725 136.434 176.536 137.099 174.674 138.344C172.811 139.59 171.36 141.361 170.503 143.432C169.646 145.504 169.421 147.783 169.858 149.983C170.295 152.182 171.374 154.202 172.958 155.788C174.541 157.373 176.559 158.453 178.756 158.89C180.952 159.328 183.229 159.103 185.298 158.245C187.367 157.387 189.136 155.934 190.38 154.07C191.625 152.205 192.289 150.013 192.289 147.771C192.285 144.765 191.091 141.883 188.968 139.758C186.845 137.633 183.967 136.437 180.965 136.434V136.434Z" fill="#6C63FF"/>
</g>
</g>
</svg>
