<?xml version="1.0" encoding="utf-8"?>
<!-- Generator: Adobe Illustrator 24.1.2, SVG Export Plug-In . SVG Version: 6.00 Build 0)  -->
<svg version="1.1" xmlns="http://www.w3.org/2000/svg" xmlns:xlink="http://www.w3.org/1999/xlink" x="0px" y="0px"
	 viewBox="0 0 778 761.8" style="enable-background:new 0 0 778 761.8;" xml:space="preserve">
<style type="text/css">
	.st0{fill:#DBDBFC;}
	.st1{fill:#6C63FF;}
	.st2{opacity:0.2;enable-background:new    ;}
	.st3{opacity:5.000000e-02;fill:#FFFFFF;enable-background:new    ;}
	.st4{fill:url(#SVGID_1_);}
	.st5{fill:#965D7B;}
	.st6{fill:#575988;}
	.st7{opacity:5.000000e-02;enable-background:new    ;}
	.st8{fill:#F7C4A7;}
	.st9{opacity:0.1;enable-background:new    ;}
	.st10{opacity:7.000000e-02;fill:#FFFFFF;enable-background:new    ;}
	.st11{fill:#FC6681;}
	.st12{opacity:0.17;fill:#6C63FF;enable-background:new    ;}
	.st13{opacity:0.1;fill:#6C63FF;enable-background:new    ;}
	.st14{opacity:0.4;}
	.st15{fill:url(#SVGID_2_);}
	.st16{opacity:0.48;fill:url(#SVGID_3_);enable-background:new    ;}
	.st17{opacity:0.48;fill:url(#moon_1_1_);enable-background:new    ;}
	.st18{opacity:0.67;}
	.st19{fill:url(#SVGID_4_);}
	.st20{fill:#798CC2;}
	.st21{fill:#E8E8E8;}
	.st22{opacity:0.3;fill:#535461;enable-background:new    ;}
	.st23{opacity:0.1;}
	.st24{fill:#535461;}
	.st25{opacity:0.26;fill:#9390D1;enable-background:new    ;}
	.st26{fill:#9390D1;}
	.st27{opacity:0.55;fill:#6C63FF;}
	.st28{fill:none;stroke:#3F3D56;stroke-width:0.1527;stroke-miterlimit:10;}
	.st29{fill:#F2F2F2;}
</style>
<g id="Background">
	<circle class="st0" cx="389" cy="380.9" r="359.7"/>
</g>
<g id="Inside">
	<g id="Meditating_Lady">
		<path class="st1" d="M195.3,684.1h387.5c2.3-1.5,4.6-3,6.8-4.5c7.5-5.1,14.9-10.4,22-16c2.6-2,5.2-4.1,7.7-6.2
			c3.2-2.7,6.5-5.5,9.6-8.3l6.8-6.2c1.6-1.5,3.3-3.1,4.9-4.7h1v-1v-5.2v-8.3v-6.2v-3.8c0-1.2-0.5-2.3-1.5-3.2c-1.8-1.8-4.9-3-8.6-3
			h-99.3h-2.5h-43.4h-13.2h-3.3h-1h-1.5h-0.2h-0.5h-4.5h-84.8h-0.2h-0.1h-0.9h-50.4h-0.6h-8.6h-10.3h-16h-7.1H178.9
			c-3.6,0-6.8,1.2-8.6,3c-0.9,0.9-1.5,2.1-1.5,3.2v3.8v6.2v8.3v6.2v4.7v6.2v8.3v6.2v2c6.3,4.9,12.8,9.6,19.5,14.1L195.3,684.1z"/>
		<path class="st2" d="M661.8,610.2H130c-6.5,0-11.8,2.8-11.8,6.2v1.3c4.2,4.8,8.5,9.5,13,14.1c2.1,2.1,4.1,4.2,6.2,6.2
			c1.6,1.6,3.2,3.1,4.9,4.7c2.2,2.1,4.5,4.2,6.8,6.2c3.2,2.8,6.4,5.6,9.6,8.3c2.5,2.1,5.1,4.2,7.7,6.2c0.8,0.7,1.7,1.3,2.5,2
			c6.3,4.9,12.8,9.6,19.5,14.1l6.8,4.5c1.6,1,3.2,2,4.8,3H578c1.6-1,3.2-2,4.8-3c2.3-1.5,4.6-3,6.8-4.5c7.5-5.1,14.9-10.4,22-16
			c2.6-2,5.2-4.1,7.7-6.2c3.2-2.7,6.5-5.5,9.6-8.3l6.8-6.2c1.6-1.5,3.3-3.1,4.9-4.7h1v-1c1.8-1.7,3.5-3.5,5.2-5.2
			c2.7-2.7,5.3-5.5,7.8-8.3c1.9-2.1,3.7-4.1,5.6-6.2c1.9-2.2,3.8-4.4,5.7-6.7C664.6,610.3,663.3,610.2,661.8,610.2z"/>
		<path class="st1" d="M111.9,607.2c-0.8,0-1.6,0.1-2.4,0.2c2.8,3.5,5.7,6.9,8.7,10.3c4.2,4.8,8.5,9.5,13,14.1
			c2.1,2.1,4.1,4.2,6.2,6.2c1.6,1.6,3.2,3.1,4.9,4.7c2.2,2.1,4.5,4.2,6.8,6.2c3.2,2.8,6.4,5.6,9.6,8.3c2.5,2.1,5.1,4.2,7.7,6.2
			c0.8,0.7,1.7,1.3,2.5,2c6.3,4.9,12.8,9.6,19.5,14.1h401.2c7.5-5.1,14.9-10.4,22-16c2.6-2,5.2-4.1,7.7-6.2c3.2-2.7,6.5-5.5,9.6-8.3
			l6.8-6.2c1.6-1.5,3.3-3.1,4.9-4.7h1v-1c1.8-1.7,3.5-3.5,5.2-5.2c2.7-2.7,5.3-5.5,7.8-8.3c1.9-2.1,3.7-4.1,5.6-6.2
			c1.9-2.2,3.8-4.4,5.7-6.7c0.9-1.1,1.9-2.2,2.8-3.4H111.9z"/>
		<path class="st3" d="M660.2,617.3c-1.8,2.1-3.7,4.2-5.6,6.2H128v-6.2H660.2z"/>
		<path class="st3" d="M646.8,631.8c-1.7,1.8-3.5,3.5-5.2,5.2v1H137.5c-2.1-2-4.2-4.1-6.2-6.2H646.8z"/>
		<path class="st3" d="M635.7,642.8l-6.8,6.2H149.1c-2.3-2-4.5-4.1-6.8-6.2H635.7z"/>
		<path class="st3" d="M619.3,657.3c-2.5,2.1-5.1,4.2-7.7,6.2H166.4c-2.6-2-5.2-4.1-7.7-6.2H619.3z"/>
		
			<linearGradient id="SVGID_1_" gradientUnits="userSpaceOnUse" x1="605.3951" y1="40.8909" x2="605.3951" y2="303.9901" gradientTransform="matrix(1 0 0 -1 -194.18 692.73)">
			<stop  offset="0" style="stop-color:#808080;stop-opacity:0.25"/>
			<stop  offset="0.54" style="stop-color:#808080;stop-opacity:0.12"/>
			<stop  offset="1" style="stop-color:#808080;stop-opacity:0.1"/>
		</linearGradient>
		<path class="st4" d="M543,584.2L543,584.2c-11.4,0.3-30.5,9.3-30.5,9.3l-1.8-1.4l-27.8-21.3c0,0-2.4-9.5-3.3-16.1
			c-1-6.6-2.4-35-2.4-35c0.6-2.2,1-4.5,1.3-6.8c0-0.2,0-0.5,0.1-0.7c0.3-0.1,0.6-0.1,0.9-0.2c0.8-0.2,1.6-0.5,2.4-0.8c0,0,0,0,0,0
			c3.4-1.5,6.1-4.3,7.5-7.7c3-7.6-0.9-16.5-5.9-22.5c-5-6-11.2-10.8-14.5-18.2c-4-9.2-2.7-20.2-4.7-30.2c-0.2-1.4-0.7-2.7-1.5-3.9
			c-1.3-1.6-3.3-1.9-5.1-2.5c-5.6-2-9.9-7.5-13.2-13.2c-5.3-9.3-10.9-23.3-21.9-24.2c-4.1-0.3-8.3,1.1-12.5,1.1
			c-6.4,0-12.8,0.1-19.1,1c-2.3,0.3-4.6,0.7-6.5,2.2c-6.5,5.2-3.6,18.8-9.8,24.3c-1.9,1.6-4.2,2.2-6.4,3.4c-8,4.2-11.5,15.6-11,25.8
			c0.2,4.8,1.2,9.7,4,13.2c0,0,0,0,0,0l0,0c2.2,2.8,5.4,4.4,7.5,7.3c0.5,0.8,1,1.6,1.4,2.4c1.9,4.4,1.5,9.7,1.2,15
			c-4.5,1.9-8.1,4-9.2,6.4c-3.9,7.8-3.4,34.5-3.4,34.5s1.4,43.7-9.5,49.2l-38.5,26.6l-2.5,1.7c0,0-16.4-14.2-27.6-15.1c0,0,0,0,0,0
			c-3.7-0.3-6.9,0.9-8.7,4.7c-3.2,6.6,3.2,11.3,11.2,14.5c3,1.2,6.2,2.2,9.3,3c1.5,0.4,2.9,0.7,4.2,1c-2.3,1.7-4.3,3.7-5.9,6
			c-1.3,2-2.3,4.1-2.9,6.2c-0.8,2.9-0.8,5.8,0.2,8.3c0.1,0.3,0.3,0.7,0.5,1c1,1.9,2.3,3.6,3.7,5.2c1.5,1.7,3.2,3.3,5,4.7
			c3.5,2.8,7.1,5,9.4,6.2c1.6,0.9,2.6,1.4,2.6,1.4s44.7,2.2,73.9-1.4c4.2-0.5,8-1.1,11.4-1.9h0.4c3.6,0.7,7.7,1.3,12,1.9
			c9.4,1.2,20,2,29,1.1c0.2,0.6,0.4,1,0.4,1s32.4,2.7,60.7-2.1c8.2-1.4,16-3.4,22.6-6.2c3.1-1.4,6-2.9,8.4-4.7
			c2.6-1.8,4.8-3.9,6.4-6.2c0.6-0.8,1.1-1.7,1.6-2.5c1.1-2.1,1.9-4,2.4-5.8c0.7-2.3,0.9-4.4,0.7-6.2c-0.3-2.8-1.5-5.2-3.3-7.1
			c-1.1-1.1-2.4-2.1-3.8-3c-1.8-1.1-3.9-2-6.1-2.7c11-0.9,23.5-4,25-13.3C551.9,585.8,548.3,584.1,543,584.2z M353.3,598.8l14.1-9
			c0,0,6.9-3.3,7.6-11.3L380,540c0.2,1,0.4,2,0.7,3v0c0.2,0.6,0.4,1.3,0.6,1.9c0.9,2.5,1.2,6.2,1.3,10.6c-0.1,16.4-4.4,41-6.4,51.7
			c-0.2,1.2-0.4,2.2-0.6,3c-0.1,0.6-0.2,1.1-0.3,1.4c0,0,0,0,0,0c-0.1,0.5-0.2,0.8-0.2,0.8h0.1c0,0.1,0,0.2,0,0.2l-0.5,0
			c-2.9-0.1-6.8-0.2-11.3-0.4c-10.7-0.4-24.5-1.1-35.7-2.2c-3.1-0.3-6.1-0.6-8.6-1l3.4-1l3.3-1l26.8-8L353.3,598.8L353.3,598.8z
			 M326.8,621.6L326.8,621.6l-3.6,0.1L326.8,621.6z M469.3,608.2c-0.1-0.3-0.3-0.6-0.4-0.9c0,0,0,0,0,0c-3.9-8.6-16.5-38-16.9-57.9
			c0.1-4.6,0.9-8.7,2.8-11.7c1.5-2.4,2.6-4.6,3.3-6.7c1.3-3.5,1.8-6.4,1.7-8.9v-0.8c0-1.2-0.1-2.4-0.3-3.5c0.6,1.6,0.8,3.4,0.5,5.1
			c-1.4,7.3,2.4,54.8,2.4,54.8s3.1,10.7,9.5,13.7l29.2,10.4h0l2.8,1c-0.1,0-0.2,0.1-0.2,0.1c-6.3,2.3-12.2,3.7-17.3,4.5
			C479.1,608.4,473.2,608.4,469.3,608.2z"/>
		<path class="st5" d="M443.4,416.8c3.2,5.6,7.3,10.9,12.8,12.9c1.7,0.6,3.6,1,4.9,2.5c0.8,1.1,1.3,2.4,1.5,3.8
			c2,9.8,0.7,20.5,4.6,29.5c3.2,7.2,9.2,11.9,14,17.8s8.6,14.5,5.7,21.9c-1.7,4.1-5.3,7.2-9.6,8.4c-4,1.1-8.2,0.6-12.3-0.1
			c-5.4-1-10.9-2.4-15.3-6.1c-7.8-6.3-11-17.6-15.1-27.7c-1.9-4.7-4.4-9.7-8.6-11.3c-4.8-1.9-10.2,1.3-13.3,6
			c-3.1,4.7-4.5,10.7-6,16.4c-1.7,6.5-3.9,13.2-8.3,17.4c-4,3.9-9.8,5-15,3c-5-2.1-8.9-7.3-10.1-13.4c-1.8-9.4,2.5-20.7-2.7-28.1
			c-2-2.9-5.1-4.4-7.3-7.2c-2.7-3.4-3.7-8.3-3.9-12.9c-0.5-10,3-21,10.6-25.2c2.1-1.1,4.3-1.7,6.1-3.3c6.1-5.4,3.2-18.7,9.5-23.7
			c1.8-1.5,4.1-1.9,6.3-2.2c6.2-0.9,12.3-0.9,18.5-0.9c4,0,8.1-1.3,12.1-1C432.9,394,438.3,407.8,443.4,416.8z"/>
		<polygon class="st6" points="329.4,617.9 331.7,645.5 494.4,644.5 491.3,614.4 436.3,608 339.8,613.8 		"/>
		<polygon class="st7" points="329.4,617.9 331.7,645.5 494.4,644.5 491.3,614.4 436.3,608 339.8,613.8 		"/>
		<path class="st8" d="M436.5,637.2l-54.2,5.1c0,0,37.1,9.5,58.8,4.9L436.5,637.2z"/>
		<path class="st9" d="M436.5,637.2l-54.2,5.1c0,0,37.1,9.5,58.8,4.9L436.5,637.2z"/>
		<path class="st8" d="M395.2,443.1c0,0,10.6,27.9-5.1,40.3s-2.8,47.3-2.8,47.3l60.4-2.8c0,0,6-39.2,2.8-47.5c0,0-14.3,4.1-17.5-4.6
			c-3.2-8.8-5.5-32.7-5.5-32.7L395.2,443.1z"/>
		<path class="st6" d="M381.4,611.8c0,0-50.9-1.2-65.9-4.9s-27.9,14.1-22.6,24.2c5.3,10.2,20,17.1,20,17.1s75.8,3.7,92.2-6.7
			c0,0,6.2-17.8,0-21.2H326l58.3-1.2L381.4,611.8z"/>
		<path class="st6" d="M462.3,606.5c0,0,17.1,3.7,40.6-5.5c0,0,44-1.4,29.3,26.7c-14.8,28.1-96.4,21.2-96.4,21.2s-4.9-10.4,0-13.1
			s47-20.5,60.2-19.6l-36.4,7.1L462.3,606.5z"/>
		<path class="st9" d="M429.6,456.5c-0.9-6.6-1.4-11.9-1.4-11.9h-32.3c1.5,4.2,2.5,8.6,3.1,13C408.3,464.1,420.8,463.7,429.6,456.5
			L429.6,456.5z"/>
		<circle class="st8" cx="412.8" cy="435.3" r="25.4"/>
		<path class="st8" d="M398,479.5c0,0-30.4,5.8-34.1,13.4s-3.2,33.7-3.2,33.7s1.4,42.6-9.2,47.9l-39.7,27.7c0,0-28.1-24.7-35-10.1
			c-6.9,14.5,33.2,19.8,33.2,19.8l44.7-13.4l14.3-9.2c0,0,6.7-3.2,7.4-11.1l6-47.5l24-6.9H445l5.2-14.8c0,0,9.6,7.7,8.2,14.8
			c-1.4,7.1,2.3,53.5,2.3,53.5s3,10.4,9.2,13.4l36,12.9c0,0,38,3.7,40.6-12.9s-37.3,2.4-37.3,2.4l-28.6-22.2c0,0-2.3-9.2-3.2-15.7
			c-0.9-6.5-2.3-34.1-2.3-34.1s8.8-29-16.6-34.1l-32.7-10.1L398,479.5z"/>
		<path class="st9" d="M377.6,485.4l4.7,31.2c0,0-4.9,14.5,0,28.8c4.9,14.3-6,67.6-6,67.6s56.9,18.2,91.7-2.8
			c0,0-25.6-53.9-14.8-71.9c10.8-18,0.2-25,0.2-25l1.7-33.1l-7.8-2.3l-4.6,32.7c0,0-31.8,22.1-55.3,2.8l-5.1-35.5L377.6,485.4z"/>
		<path class="st10" d="M410.4,522.5c-5.1-8.2-15.6-11.1-24.2-6.8C394,521.5,402.5,523,410.4,522.5z"/>
		<path class="st10" d="M423.5,519c5.1-8.2,15.6-11.1,24.2-6.8C440,518,431.4,519.6,423.5,519z"/>
		<path class="st9" d="M377.6,485.4l4.7,29.6c0,0-4.9,14.5,0,28.8c4.9,14.3-6,67.5-6,67.5s56.9,18.2,91.7-2.8
			c0,0-25.6-53.9-14.8-71.9c10.8-18,0.2-25,0.2-25l1.7-33.1l-7.8-2.3l-4.6,32.7c0,0-31.8,22.1-55.3,2.8l-5.1-35.5L377.6,485.4z"/>
		<path class="st11" d="M377.3,485.1l5,30.3c0,0-4.9,14.5,0,28.8s-6,67.5-6,67.5S433.2,630,468,609c0,0-25.6-53.9-14.8-71.9
			c10.8-18,0.2-25,0.2-25l1.7-33.1l-7.8-2.3l-4.6,32.7c0,0-31.8,22.1-55.3,2.8l-5.1-35.5L377.3,485.1z"/>
		<path class="st8" d="M400.7,623.1l12-1.6c0,0,13.8-17.8,23.7-4.1c0,0,4.1,8.8,9.2,10.4c3.5,1.1,7,1.8,10.6,2.3l-20.5,5.8
			c0,0-9,5.3-18.4,3.9c-5.6-0.9-11.2-0.4-16.6,1.4L400.7,623.1z"/>
		<path class="st9" d="M387.5,547.8c0,0,21.7,3.2,25.4-2.5L387.5,547.8z"/>
		<path class="st9" d="M428.5,544.1c0,0,4.1,4.1,20.7,1.2L428.5,544.1z"/>
		<path class="st9" d="M386.3,479.8c0,0,15.9,2.3,18.9,0.9L386.3,479.8z"/>
		<path class="st9" d="M421.4,479.8c0,0,15.9,2.3,18.9,0.9L421.4,479.8z"/>
		<path class="st9" d="M402.4,621.4c0,0,4.4,20.7,0,21.4c-4.4,0.7-10.6-3.4-10.6-3.9c0-0.5,2.8-13.6,2.8-13.6L402.4,621.4z"/>
		<path class="st6" d="M402,621.4c0,0,4.4,20.7,0,21.4c-4.4,0.7-10.6-3.4-10.6-3.9c0-0.5,2.8-13.6,2.8-13.6L402,621.4z"/>
		<path class="st9" d="M380.6,476.8c-1.9,4.5-2.6,9.8-0.6,14.2c1.6,3.4,4.6,6.1,5.2,9.8c0.7,4.6-2.7,9.3-1.4,13.8
			c0.5,1.7,1.6,3.2,2.8,4.5c3.5,4.1,8.2,8.2,13.6,7.8c0.9-8.4-6.4-16.5-4-24.6c0.9-2.9,2.8-5.3,4-8.1c2-4.6,1.7-9.8,1-14.7
			c-1.1-7.2-3.7-16-10.8-19.3c-3.3-1.5-7.9-1.7-9.1,2.5c-0.6,2.2,0.9,4.3,1.1,6.5C382.7,472.2,381.7,474.3,380.6,476.8z"/>
		<path class="st5" d="M380.6,476.1c-1.9,4.5-2.6,9.8-0.6,14.2c1.6,3.4,4.6,6.1,5.2,9.8c0.7,4.6-2.7,9.3-1.4,13.8
			c0.5,1.7,1.6,3.2,2.8,4.5c3.5,4.1,8.2,8.2,13.6,7.8c0.9-8.4-6.4-16.5-4-24.6c0.9-2.9,2.8-5.3,4-8.1c2-4.6,1.7-9.8,1-14.7
			c-1.1-7.2-3.7-16-10.8-19.3c-3.3-1.5-7.9-1.7-9.1,2.5c-0.6,2.2,0.9,4.3,1.1,6.5C382.7,471.5,381.7,473.6,380.6,476.1z"/>
		<path class="st9" d="M382.4,422.9c0,0,33.7-4.6,34.6,2.3s30.7,18.2,30.7,18.2l-7.4-18.2l-13.6-22.6c0,0-24.9-1.8-26,0
			s-14.3,7.8-14.3,7.8L382.4,422.9z"/>
		<path class="st5" d="M382.4,422.4c0,0,33.7-4.6,34.6,2.3c0.9,6.9,30.7,18.2,30.7,18.2l-7.4-18.2l-13.6-22.6c0,0-24.9-1.8-26,0
			s-14.3,7.8-14.3,7.8L382.4,422.4z"/>
		<path class="st9" d="M441,471.7c1.6,2,2.8,4.3,3.4,6.8c0.6,2.4,0.6,4.9,1.1,7.2c1.1,5.1,4.5,9.3,8,13.2c1.1,1.4,2.5,2.6,4.1,3.4
			c1.6,0.8,3.6,1,5.1,0c-1.4-1.2-2.2-2.9-2.7-4.7c-0.7-2.4-1-5-0.9-7.5c0.2-4.3,1.4-8.7-0.4-12.6c-1-2.2-2.9-3.9-4.9-5.5
			c-1.3-1.1-2.8-2-4.3-2.8c-2.9-1.4-6.1-2.1-9.3-2.4C436.1,466.4,439.7,470.1,441,471.7z"/>
		<path class="st5" d="M441,471c1.6,2,2.8,4.3,3.4,6.8c0.6,2.4,0.6,4.9,1.1,7.2c1.1,5.1,4.5,9.3,8,13.2c1.1,1.4,2.5,2.6,4.1,3.4
			c1.6,0.8,3.6,1,5.1,0c-1.4-1.2-2.2-2.9-2.7-4.7c-0.7-2.4-1-5-0.9-7.5c0.2-4.3,1.4-8.7-0.4-12.6c-1-2.2-2.9-3.9-4.9-5.5
			c-1.3-1.1-2.8-2.1-4.3-2.9c-2.9-1.4-6.1-2.1-9.3-2.4C436.1,465.7,439.7,469.4,441,471z"/>
	</g>
	<g id="cloud_2">
		<path class="st12" d="M299.3,143.3l-15.5,9.9l9.4-17.1c-2.7-2.1-6-3.3-9.4-3.3h-0.2c-1.1,0-2.2-0.1-3.2-0.2l-5.2,3.3l2.3-4.1
			c-3.7-1.3-7-3.8-9.2-7l-9.4,6l6-10.8c-5.5-6.6-12.9-10.7-21.1-10.7c-9.8,0-18.5,5.8-24.1,14.9c-3.4,5.5-9.5,8.8-16,8.6H203
			c-10.8,0-19.6,12.3-19.6,27.4s8.7,27.4,19.6,27.4c2.4,0,4.7-0.6,6.8-1.7c7.4-3.6,16.1-3.8,23.7-0.5c6.4,2.9,13.7,2.9,20.1,0.1
			c7.5-3.3,16.1-3.1,23.5,0.4c2.1,1.1,4.4,1.7,6.7,1.7c10.8,0,19.6-12.2,19.6-27.4C303.5,154.2,302.1,148.4,299.3,143.3z"/>
		<path class="st13" d="M270.8,182.4c-5.6-1.1-11.5-0.4-16.8,1.8c-6.4,2.8-13.7,2.8-20.1-0.1c-7.6-3.3-16.2-3.2-23.7,0.5
			c-2.1,1.1-4.4,1.7-6.8,1.7c-9.6,0-17.6-9.7-19.2-22.4c1.9-1.4,3.5-3.2,4.8-5.2c5.6-9.1,14.4-14.9,24.1-14.9s18.4,5.8,24,14.7
			c3.4,5.5,9.5,8.8,16,8.8h0.2C261,167.4,267.6,173.5,270.8,182.4z"/>
	</g>
	<g id="cloud_1">
		<path class="st12" d="M608.3,144.8l-10.9,6.9l6.6-12c-1.9-1.5-4.2-2.3-6.6-2.4h-0.2c-0.8,0-1.5,0-2.2-0.2l-3.7,2.3l1.6-2.9
			c-2.6-0.9-4.9-2.6-6.4-4.9l-6.6,4.2l4.2-7.6c-3.8-4.6-9-7.5-14.8-7.5c-6.8,0-13,4.1-16.9,10.4c-2.4,3.9-6.6,6.1-11.2,6h-0.3
			c-7.6,0-13.7,8.6-13.7,19.2c0,10.6,6.1,19.2,13.7,19.2c1.7,0,3.3-0.4,4.8-1.2c5.2-2.5,11.3-2.6,16.6-0.3c2.2,1,4.6,1.5,7.1,1.5
			c2.4,0,4.8-0.5,7-1.5c5.3-2.3,11.3-2.2,16.4,0.3c1.5,0.8,3.1,1.2,4.7,1.2c7.6,0,13.7-8.6,13.7-19.2
			C611.2,152.4,610.2,148.4,608.3,144.8z"/>
		<path class="st13" d="M588.6,171.9c-4-0.7-8-0.3-11.7,1.3c-4.5,2-9.6,2-14.1,0c-5.3-2.3-11.4-2.2-16.6,0.3
			c-1.5,0.8-3.1,1.2-4.8,1.2c-6.7,0-12.3-6.8-13.5-15.7c1.3-1,2.5-2.2,3.4-3.6c3.9-6.4,10-10.4,16.9-10.4s12.9,4,16.8,10.3
			c2.4,3.8,6.6,6.2,11.2,6.1h0.2C581.6,161.4,586.3,165.7,588.6,171.9z"/>
	</g>
	<g id="cloud_3">
		<path class="st12" d="M346.3,305.8l10.9,6.9l-6.6-12c1.9-1.5,4.2-2.3,6.6-2.4h0.2c0.8,0,1.5,0,2.2-0.2l3.7,2.3l-1.6-2.9
			c2.6-0.9,4.9-2.6,6.5-4.9l6.6,4.2l-4.2-7.5c3.9-4.6,9-7.5,14.8-7.5c6.9,0,13,4.1,16.9,10.4c2.4,3.9,6.6,6.1,11.2,6h0.4
			c7.6,0,13.7,8.6,13.7,19.2s-6.1,19.2-13.7,19.2c-1.7,0-3.3-0.4-4.8-1.2c-5.2-2.5-11.3-2.6-16.6-0.3c-2.2,1-4.6,1.5-7.1,1.5
			c-2.4,0-4.8-0.5-7-1.5c-5.3-2.3-11.3-2.2-16.4,0.3c-1.5,0.8-3.1,1.2-4.7,1.2c-7.6,0-13.7-8.6-13.7-19.2
			C343.4,313.4,344.3,309.4,346.3,305.8z"/>
		<path class="st13" d="M366.5,332.9c4-0.7,8-0.3,11.7,1.3c4.5,2,9.6,2,14.1,0c5.3-2.3,11.3-2.2,16.6,0.3c1.5,0.8,3.1,1.2,4.8,1.2
			c6.7,0,12.3-6.8,13.5-15.7c-1.3-1-2.5-2.2-3.4-3.6c-3.9-6.4-10-10.4-16.9-10.4s-12.9,4-16.8,10.3c-2.4,3.8-6.6,6.2-11.2,6.1h-0.2
			C373.4,322.4,368.7,326.6,366.5,332.9z"/>
	</g>
	<g id="moon_2">
		<g class="st14">
			
				<linearGradient id="SVGID_2_" gradientUnits="userSpaceOnUse" x1="313.8947" y1="357.3319" x2="313.8947" y2="427.1893" gradientTransform="matrix(1 0 0 -1 -137.41 697.05)">
				<stop  offset="0" style="stop-color:#808080;stop-opacity:0.25"/>
				<stop  offset="0.54" style="stop-color:#808080;stop-opacity:0.12"/>
				<stop  offset="1" style="stop-color:#808080;stop-opacity:0.1"/>
			</linearGradient>
			<path class="st15" d="M204.3,283.7L204.3,283.7c-2.8-3.7-6.4-6.9-10.4-9.2l0,0c-16.7-9.6-38.1-3.8-47.7,12.9
				c-9.6,16.7-3.8,38.1,12.9,47.7c5.3,3,11.2,4.6,17.3,4.6c0.7,0,1.5,0,2.2-0.1c19.2-1.2,33.9-17.8,32.7-37
				C210.9,295.8,208.4,289.2,204.3,283.7L204.3,283.7z"/>
		</g>
		<linearGradient id="SVGID_3_" gradientUnits="userSpaceOnUse" x1="189.0059" y1="274.9397" x2="163.4042" y2="335.8014">
			<stop  offset="0" style="stop-color:#FFFFFF"/>
			<stop  offset="1" style="stop-color:#7957B2"/>
		</linearGradient>
		<path class="st16" d="M209.5,304.8c0,17.4-13.5,31.8-30.9,32.9c-0.7,0-1.4,0.1-2.1,0.1c-18.2,0-33-14.8-33-33
			c0-18.2,14.8-33,33-33c5.8,0,11.5,1.5,16.5,4.4l0,0c3.8,2.2,7.2,5.2,9.8,8.7l0,0C207.1,290.6,209.5,297.6,209.5,304.8z"/>
	</g>
	
		<linearGradient id="moon_1_1_" gradientUnits="userSpaceOnUse" x1="543.5283" y1="310.5855" x2="526.032" y2="352.1786" gradientTransform="matrix(0.8193 -0.5734 0.5734 0.8193 5.6386 314.4704)">
		<stop  offset="0" style="stop-color:#FFFFFF"/>
		<stop  offset="1" style="stop-color:#7957B2"/>
	</linearGradient>
	<path id="moon_1" class="st17" d="M652.2,266c6.8,9.8,4.9,23.1-4.4,30.6c-0.4,0.3-0.8,0.6-1.1,0.9c-10.2,7.1-24.3,4.6-31.4-5.6
		c-7.1-10.2-4.6-24.3,5.6-31.4c3.2-2.3,7-3.6,11-4l0,0c3-0.3,6,0.1,8.9,1l0,0C645.3,259,649.4,262,652.2,266z"/>
	<g id="clock" class="st18">
		
			<linearGradient id="SVGID_4_" gradientUnits="userSpaceOnUse" x1="512.0956" y1="465.1229" x2="512.0956" y2="546.1699" gradientTransform="matrix(1 0 0 -1 0 762)">
			<stop  offset="0" style="stop-color:#808080;stop-opacity:0.25"/>
			<stop  offset="0.54" style="stop-color:#808080;stop-opacity:0.12"/>
			<stop  offset="1" style="stop-color:#808080;stop-opacity:0.1"/>
		</linearGradient>
		<circle class="st19" cx="512.1" cy="256.4" r="40.5"/>
		<circle class="st20" cx="512.1" cy="256.4" r="39.9"/>
		<circle class="st21" cx="512.1" cy="256.4" r="31.7"/>
		<rect x="511.2" y="230.3" class="st22" width="1.8" height="28"/>
		<g class="st23">
			<rect x="514" y="255.7" width="25.3" height="2.2"/>
			<rect x="502.5" y="243.5" transform="matrix(0.4639 -0.8859 0.8859 0.4639 46.3062 581.4518)" width="2.2" height="18"/>
			<circle cx="512.1" cy="256.8" r="3.4"/>
		</g>
		<rect x="514" y="255.2" class="st24" width="25.3" height="2.2"/>
		
			<rect x="502.5" y="243" transform="matrix(0.4639 -0.8859 0.8859 0.4639 46.7046 581.2197)" class="st24" width="2.2" height="18"/>
		<circle class="st24" cx="512.1" cy="256.4" r="3.4"/>
		<g class="st23">
			<path d="M482.9,260.2c0-17.5,14.2-31.7,31.7-31.7c10,0,19.3,4.7,25.3,12.6c-5.4-9.8-15.8-16.4-27.8-16.4
				c-17.5,0-31.7,14.2-31.7,31.7c0,6.9,2.2,13.6,6.4,19C484.2,270.7,482.9,265.5,482.9,260.2z"/>
		</g>
		<path class="st7" d="M535.4,241.2c0,0-0.4,1-0.2,1.3"/>
		<path class="st7" d="M519.1,240.9c0,0,0.2,1,0,1.3"/>
	</g>
	<g id="Money">
		<circle class="st25" cx="417.1" cy="142.3" r="28.1"/>
		<path class="st26" d="M415.8,158.9v-4.1c-2.1,0-4.2-0.8-5.5-1.8l0.9-2.7c1.5,1.1,3.3,1.7,5.1,1.7c2.5,0,4.2-1.7,4.2-4
			c0-2.2-1.4-3.6-4-4.8c-3.6-1.6-5.9-3.5-5.9-7c0-3.4,2.1-5.9,5.4-6.5v-4.1h2.2v3.9c1.6,0,3.3,0.5,4.6,1.4l-0.9,2.7
			c-1.3-0.9-2.9-1.4-4.5-1.4c-2.7,0-3.8,1.9-3.8,3.5c0,2.1,1.3,3.2,4.4,4.6c3.7,1.7,5.5,3.8,5.5,7.4c0,3.2-2,6.2-5.6,6.9v4.2H415.8z
			"/>
	</g>
	<g id="Graph">
		<path class="st27" d="M173.8,420.6h5.5c1,0,1.8,0.8,1.8,1.8v20.5c0,1-0.8,1.8-1.8,1.8h-5.5c-1,0-1.8-0.8-1.8-1.8v-20.5
			C172,421.4,172.8,420.6,173.8,420.6z"/>
		<path class="st27" d="M191.2,406.1h5.5c1,0,1.8,0.8,1.8,1.8v35c0,1-0.8,1.8-1.8,1.8h-5.5c-1,0-1.8-0.8-1.8-1.8v-35
			C189.4,406.9,190.2,406.1,191.2,406.1z"/>
		<path class="st27" d="M208.6,396h5.5c1,0,1.8,0.8,1.8,1.8v45.1c0,1-0.8,1.8-1.8,1.8h-5.5c-1,0-1.8-0.8-1.8-1.8v-45.1
			C206.8,396.8,207.6,396,208.6,396z"/>
		<path class="st27" d="M226,386.4h5.5c1,0,1.8,0.8,1.8,1.8v54.7c0,1-0.8,1.8-1.8,1.8H226c-1,0-1.8-0.8-1.8-1.8v-54.7
			C224.2,387.2,225,386.4,226,386.4z"/>
		<path class="st27" d="M243.4,369.6h5.5c1,0,1.8,0.8,1.8,1.8v71.5c0,1-0.8,1.8-1.8,1.8h-5.5c-1,0-1.8-0.8-1.8-1.8v-71.5
			C241.6,370.4,242.4,369.6,243.4,369.6z"/>
		<path class="st28" d="M175,419.4h5.5c1,0,1.8,0.8,1.8,1.8v20.5c0,1-0.8,1.8-1.8,1.8H175c-1,0-1.8-0.8-1.8-1.8v-20.5
			C173.2,420.2,174,419.4,175,419.4z"/>
		<path class="st28" d="M192.4,404.8h5.5c1,0,1.8,0.8,1.8,1.8v35c0,1-0.8,1.8-1.8,1.8h-5.5c-1,0-1.8-0.8-1.8-1.8v-35
			C190.6,405.7,191.4,404.8,192.4,404.8z"/>
		<path class="st28" d="M209.8,394.8h5.5c1,0,1.8,0.8,1.8,1.8v45.1c0,1-0.8,1.8-1.8,1.8h-5.5c-1,0-1.8-0.8-1.8-1.8v-45.1
			C208,395.6,208.8,394.8,209.8,394.8z"/>
		<path class="st28" d="M227.2,385.1h5.5c1,0,1.8,0.8,1.8,1.8v54.7c0,1-0.8,1.8-1.8,1.8h-5.5c-1,0-1.8-0.8-1.8-1.8V387
			C225.4,386,226.2,385.1,227.2,385.1z"/>
		<path class="st28" d="M244.6,368.3h5.5c1,0,1.8,0.8,1.8,1.8v71.5c0,1-0.8,1.8-1.8,1.8h-5.5c-1,0-1.8-0.8-1.8-1.8v-71.5
			C242.8,369.2,243.6,368.3,244.6,368.3z"/>
		<polyline class="st28" points="177.7,410.1 195.1,395.6 212.7,385.7 230.1,376.1 247.5,359.3 		"/>
		<circle class="st29" cx="177.2" cy="410.9" r="1.7"/>
		<circle class="st29" cx="194.6" cy="396.4" r="1.7"/>
		<circle class="st29" cx="212.2" cy="386.4" r="1.7"/>
		<circle class="st29" cx="229.6" cy="376.8" r="1.7"/>
		<circle class="st29" cx="247" cy="360" r="1.7"/>
		<circle class="st28" cx="177.7" cy="410.1" r="1.7"/>
		<circle class="st28" cx="195.1" cy="395.6" r="1.7"/>
		<circle class="st28" cx="212.7" cy="385.7" r="1.7"/>
		<circle class="st28" cx="230.1" cy="376.1" r="1.7"/>
		<circle class="st28" cx="247.5" cy="359.3" r="1.7"/>
	</g>
</g>
</svg>
