<?xml version="1.0" encoding="utf-8"?>
<!-- Generator: Adobe Illustrator 24.1.2, SVG Export Plug-In . SVG Version: 6.00 Build 0)  -->
<svg version="1.1" id="Layer_1" xmlns="http://www.w3.org/2000/svg" xmlns:xlink="http://www.w3.org/1999/xlink" x="0px" y="0px"
	 viewBox="0 0 778 761.8" style="enable-background:new 0 0 778 761.8;" xml:space="preserve">
<style type="text/css">
	.st0{fill:#DBDBFC;}
	.st1{fill:#6C63FF;}
	.st2{opacity:0.2;enable-background:new    ;}
	.st3{opacity:5.000000e-02;fill:#FFFFFF;enable-background:new    ;}
	.st4{fill:url(#SVGID_1_);}
	.st5{fill:#965D7B;}
	.st6{fill:#575988;}
	.st7{opacity:5.000000e-02;enable-background:new    ;}
	.st8{fill:#F7C4A7;}
	.st9{opacity:0.1;enable-background:new    ;}
	.st10{opacity:7.000000e-02;fill:#FFFFFF;enable-background:new    ;}
	.st11{fill:#FC6681;}
	.st12{opacity:0.26;fill:#9390D1;enable-background:new    ;}
	.st13{fill:#9390D1;}
	.st14{fill:url(#SVGID_2_);}
	.st15{fill:#798CC2;}
	.st16{fill:#E8E8E8;}
	.st17{opacity:0.3;fill:#535461;enable-background:new    ;}
	.st18{opacity:0.1;}
	.st19{fill:#535461;}
	.st20{opacity:0.55;fill:#6C63FF;enable-background:new    ;}
	.st21{fill:none;stroke:#3F3D56;stroke-width:0.2544;stroke-miterlimit:10;}
	.st22{fill:#F2F2F2;}
</style>
<circle class="st0" cx="401.6" cy="377.8" r="359.7"/>
<g>
	<path class="st1" d="M208.6,679.6h389.6c2.3-1.5,4.6-3,6.8-4.5c7.5-5.1,15-10.4,22.1-16c2.6-2,5.2-4.1,7.7-6.2
		c3.2-2.7,6.5-5.5,9.7-8.3l6.8-6.2c1.6-1.5,3.3-3.1,4.9-4.7h1v-1v-5.2v-8.3V613v-3.8c0-1.2-0.5-2.3-1.5-3.2c-1.8-1.8-4.9-3-8.6-3
		h-99.8h-2.5h-43.6h-13.3h-3.3h-1H482h-0.2h-0.5h-4.5h-85.3h-0.2h-0.1h-0.9h-50.7h-0.6h-8.6h-10.4H304h-7.1H192.1
		c-3.6,0-6.8,1.2-8.6,3c-0.9,0.9-1.5,2.1-1.5,3.2v3.8v6.2v8.3v6.2v4.7v6.2v8.3v6.2v2c6.3,4.9,12.9,9.6,19.6,14.1L208.6,679.6z"/>
	<path class="st2" d="M677.6,605.7H142.9c-6.5,0-11.9,2.8-11.9,6.2v1.3c4.2,4.8,8.5,9.5,13.1,14.1c2.1,2.1,4.1,4.2,6.2,6.2
		c1.6,1.6,3.2,3.1,4.9,4.7c2.2,2.1,4.5,4.2,6.8,6.2c3.2,2.8,6.4,5.6,9.7,8.3c2.5,2.1,5.1,4.2,7.7,6.2c0.8,0.7,1.7,1.3,2.5,2
		c6.3,4.9,12.9,9.6,19.6,14.1l6.8,4.5c1.6,1,3.2,2,4.8,3h380c1.6-1,3.2-2,4.8-3c2.3-1.5,4.6-3,6.8-4.5c7.5-5.1,15-10.4,22.1-16
		c2.6-2,5.2-4.1,7.7-6.2c3.2-2.7,6.5-5.5,9.7-8.3l6.8-6.2c1.6-1.5,3.3-3.1,4.9-4.7h1v-1c1.8-1.7,3.5-3.5,5.2-5.2
		c2.7-2.7,5.3-5.5,7.8-8.3c1.9-2.1,3.7-4.1,5.6-6.2c1.9-2.2,3.8-4.4,5.7-6.7C680.4,605.8,679.1,605.7,677.6,605.7z"/>
	<path class="st1" d="M124.7,602.7c-0.8,0-1.6,0.1-2.4,0.2c2.8,3.5,5.7,6.9,8.7,10.3c4.2,4.8,8.5,9.5,13.1,14.1
		c2.1,2.1,4.1,4.2,6.2,6.2c1.6,1.6,3.2,3.1,4.9,4.7c2.2,2.1,4.5,4.2,6.8,6.2c3.2,2.8,6.4,5.6,9.7,8.3c2.5,2.1,5.1,4.2,7.7,6.2
		c0.8,0.7,1.7,1.3,2.5,2c6.3,4.9,12.9,9.6,19.6,14.1H605c7.5-5.1,15-10.4,22.1-16c2.6-2,5.2-4.1,7.7-6.2c3.2-2.7,6.5-5.5,9.7-8.3
		l6.8-6.2c1.6-1.5,3.3-3.1,4.9-4.7h1v-1c1.8-1.7,3.5-3.5,5.2-5.2c2.7-2.7,5.3-5.5,7.8-8.3c1.9-2.1,3.7-4.1,5.6-6.2
		c1.9-2.2,3.8-4.4,5.7-6.7c0.9-1.1,1.9-2.2,2.8-3.4L124.7,602.7L124.7,602.7z"/>
	<path class="st3" d="M676,612.8c-1.8,2.1-3.7,4.2-5.6,6.2H140.9v-6.2H676z"/>
	<path class="st3" d="M662.5,627.3c-1.7,1.8-3.5,3.5-5.2,5.2v1H150.5c-2.1-2-4.2-4.1-6.2-6.2H662.5z"/>
	<path class="st3" d="M651.4,638.3l-6.8,6.2H162.1c-2.3-2-4.5-4.1-6.8-6.2H651.4z"/>
	<path class="st3" d="M634.9,652.8c-2.5,2.1-5.1,4.2-7.7,6.2H179.5c-2.6-2-5.2-4.1-7.7-6.2H634.9z"/>
</g>
<g>
	
		<linearGradient id="SVGID_1_" gradientUnits="userSpaceOnUse" x1="595.7785" y1="106.4603" x2="595.7785" y2="-156.6389" gradientTransform="matrix(1 0 0 1 -194.18 548.73)">
		<stop  offset="0" style="stop-color:#808080;stop-opacity:0.25"/>
		<stop  offset="0.54" style="stop-color:#808080;stop-opacity:0.12"/>
		<stop  offset="1" style="stop-color:#808080;stop-opacity:0.1"/>
	</linearGradient>
	<path class="st4" d="M533.5,587.6L533.5,587.6c-11.4,0.3-30.5,9.3-30.5,9.3l-1.8-1.4l-27.8-21.3c0,0-2.4-9.5-3.3-16.1
		c-1-6.6-2.4-35-2.4-35c0.6-2.2,1-4.5,1.3-6.8c0-0.2,0-0.5,0.1-0.7c0.3-0.1,0.6-0.1,0.9-0.2c0.8-0.2,1.6-0.5,2.4-0.8l0,0
		c3.4-1.5,6.1-4.3,7.5-7.7c3-7.6-0.9-16.5-5.9-22.5s-11.2-10.8-14.5-18.2c-4-9.2-2.7-20.2-4.7-30.2c-0.2-1.4-0.7-2.7-1.5-3.9
		c-1.3-1.6-3.3-1.9-5.1-2.5c-5.6-2-9.9-7.5-13.2-13.2c-5.3-9.3-10.9-23.3-21.9-24.2c-4.1-0.3-8.3,1.1-12.5,1.1
		c-6.4,0-12.8,0.1-19.1,1c-2.3,0.3-4.6,0.7-6.5,2.2c-6.5,5.2-3.6,18.8-9.8,24.3c-1.9,1.6-4.2,2.2-6.4,3.4c-8,4.2-11.5,15.6-11,25.8
		c0.2,4.8,1.2,9.7,4,13.2l0,0l0,0c2.2,2.8,5.4,4.4,7.5,7.3c0.5,0.8,1,1.6,1.4,2.4c1.9,4.4,1.5,9.7,1.2,15c-4.5,1.9-8.1,4-9.2,6.4
		c-3.9,7.8-3.4,34.5-3.4,34.5s1.4,43.7-9.5,49.2l-38.5,26.6l-2.5,1.7c0,0-16.4-14.2-27.6-15.1l0,0c-3.7-0.3-6.9,0.9-8.7,4.7
		c-3.2,6.6,3.2,11.3,11.2,14.5c3,1.2,6.2,2.2,9.3,3c1.5,0.4,2.9,0.7,4.2,1c-2.3,1.7-4.3,3.7-5.9,6c-1.3,2-2.3,4.1-2.9,6.2
		c-0.8,2.9-0.8,5.8,0.2,8.3c0.1,0.3,0.3,0.7,0.5,1c1,1.9,2.3,3.6,3.7,5.2c1.5,1.7,3.2,3.3,5,4.7c3.5,2.8,7.1,5,9.4,6.2
		c1.6,0.9,2.6,1.4,2.6,1.4s44.7,2.2,73.9-1.4c4.2-0.5,8-1.1,11.4-1.9h0.4c3.6,0.7,7.7,1.3,12,1.9c9.4,1.2,20,2,29,1.1
		c0.2,0.6,0.4,1,0.4,1s32.4,2.7,60.7-2.1c8.2-1.4,16-3.4,22.6-6.2c3.1-1.4,6-2.9,8.4-4.7c2.6-1.8,4.8-3.9,6.4-6.2
		c0.6-0.8,1.1-1.7,1.6-2.5c1.1-2.1,1.9-4,2.4-5.8c0.7-2.3,0.9-4.4,0.7-6.2c-0.3-2.8-1.5-5.2-3.3-7.1c-1.1-1.1-2.4-2.1-3.8-3
		c-1.8-1.1-3.9-2-6.1-2.7c11-0.9,23.5-4,25-13.3C542.4,589.2,538.8,587.5,533.5,587.6z M343.8,602.2l14.1-9c0,0,6.9-3.3,7.6-11.3
		l5-38.5c0.2,1,0.4,2,0.7,3l0,0c0.2,0.6,0.4,1.3,0.6,1.9c0.9,2.5,1.2,6.2,1.3,10.6c-0.1,16.4-4.4,41-6.4,51.7
		c-0.2,1.2-0.4,2.2-0.6,3c-0.1,0.6-0.2,1.1-0.3,1.4l0,0c-0.1,0.5-0.2,0.8-0.2,0.8h0.1c0,0.1,0,0.2,0,0.2h-0.5
		c-2.9-0.1-6.8-0.2-11.3-0.4c-10.7-0.4-24.5-1.1-35.7-2.2c-3.1-0.3-6.1-0.6-8.6-1l3.4-1l3.3-1l26.8-8L343.8,602.2L343.8,602.2z
		 M317.3,625L317.3,625l-3.6,0.1L317.3,625z M459.8,611.6c-0.1-0.3-0.3-0.6-0.4-0.9l0,0c-3.9-8.6-16.5-38-16.9-57.9
		c0.1-4.6,0.9-8.7,2.8-11.7c1.5-2.4,2.6-4.6,3.3-6.7c1.3-3.5,1.8-6.4,1.7-8.9v-0.8c0-1.2-0.1-2.4-0.3-3.5c0.6,1.6,0.8,3.4,0.5,5.1
		c-1.4,7.3,2.4,54.8,2.4,54.8s3.1,10.7,9.5,13.7l29.2,10.4l0,0l2.8,1c-0.1,0-0.2,0.1-0.2,0.1c-6.3,2.3-12.2,3.7-17.3,4.5
		C469.6,611.8,463.7,611.8,459.8,611.6z"/>
	<path class="st5" d="M433.9,420.2c3.2,5.6,7.3,10.9,12.8,12.9c1.7,0.6,3.6,1,4.9,2.5c0.8,1.1,1.3,2.4,1.5,3.8
		c2,9.8,0.7,20.5,4.6,29.5c3.2,7.2,9.2,11.9,14,17.8s8.6,14.5,5.7,21.9c-1.7,4.1-5.3,7.2-9.6,8.4c-4,1.1-8.2,0.6-12.3-0.1
		c-5.4-1-10.9-2.4-15.3-6.1c-7.8-6.3-11-17.6-15.1-27.7c-1.9-4.7-4.4-9.7-8.6-11.3c-4.8-1.9-10.2,1.3-13.3,6
		c-3.1,4.7-4.5,10.7-6,16.4c-1.7,6.5-3.9,13.2-8.3,17.4c-4,3.9-9.8,5-15,3c-5-2.1-8.9-7.3-10.1-13.4c-1.8-9.4,2.5-20.7-2.7-28.1
		c-2-2.9-5.1-4.4-7.3-7.2c-2.7-3.4-3.7-8.3-3.9-12.9c-0.5-10,3-21,10.6-25.2c2.1-1.1,4.3-1.7,6.1-3.3c6.1-5.4,3.2-18.7,9.5-23.7
		c1.8-1.5,4.1-1.9,6.3-2.2c6.2-0.9,12.3-0.9,18.5-0.9c4,0,8.1-1.3,12.1-1C423.4,397.4,428.8,411.2,433.9,420.2z"/>
	<polygon class="st6" points="319.9,621.3 322.2,648.9 484.9,647.9 481.8,617.8 426.8,611.4 330.3,617.2 	"/>
	<polygon class="st7" points="319.9,621.3 322.2,648.9 484.9,647.9 481.8,617.8 426.8,611.4 330.3,617.2 	"/>
	<path class="st8" d="M427,640.6l-54.2,5.1c0,0,37.1,9.5,58.8,4.9L427,640.6z"/>
	<path class="st9" d="M427,640.6l-54.2,5.1c0,0,37.1,9.5,58.8,4.9L427,640.6z"/>
	<path class="st8" d="M385.7,446.5c0,0,10.6,27.9-5.1,40.3s-2.8,47.3-2.8,47.3l60.4-2.8c0,0,6-39.2,2.8-47.5c0,0-14.3,4.1-17.5-4.6
		c-3.2-8.8-5.5-32.7-5.5-32.7H385.7z"/>
	<path class="st6" d="M371.9,615.2c0,0-50.9-1.2-65.9-4.9s-27.9,14.1-22.6,24.2c5.3,10.2,20,17.1,20,17.1s75.8,3.7,92.2-6.7
		c0,0,6.2-17.8,0-21.2h-79.1l58.3-1.2L371.9,615.2z"/>
	<path class="st6" d="M452.8,609.9c0,0,17.1,3.7,40.6-5.5c0,0,44-1.4,29.3,26.7c-14.8,28.1-96.4,21.2-96.4,21.2s-4.9-10.4,0-13.1
		s47-20.5,60.2-19.6l-36.4,7.1L452.8,609.9z"/>
	<path class="st9" d="M420.1,459.9c-0.9-6.6-1.4-11.9-1.4-11.9h-32.3c1.5,4.2,2.5,8.6,3.1,13C398.8,467.5,411.3,467.1,420.1,459.9
		L420.1,459.9z"/>
	<circle class="st8" cx="403.3" cy="438.7" r="25.4"/>
	<path class="st8" d="M388.5,482.9c0,0-30.4,5.8-34.1,13.4s-3.2,33.7-3.2,33.7s1.4,42.6-9.2,47.9l-39.7,27.7c0,0-28.1-24.7-35-10.1
		c-6.9,14.5,33.2,19.8,33.2,19.8l44.7-13.4l14.3-9.2c0,0,6.7-3.2,7.4-11.1l6-47.5l24-6.9h38.6l5.2-14.8c0,0,9.6,7.7,8.2,14.8
		s2.3,53.5,2.3,53.5s3,10.4,9.2,13.4l36,12.9c0,0,38,3.7,40.6-12.9s-37.3,2.4-37.3,2.4l-28.6-22.2c0,0-2.3-9.2-3.2-15.7
		c-0.9-6.5-2.3-34.1-2.3-34.1s8.8-29-16.6-34.1l-32.7-10.1L388.5,482.9z"/>
	<path class="st9" d="M368.1,488.8l4.7,31.2c0,0-4.9,14.5,0,28.8s-6,67.6-6,67.6s56.9,18.2,91.7-2.8c0,0-25.6-53.9-14.8-71.9
		c10.8-18,0.2-25,0.2-25l1.7-33.1l-7.8-2.3l-4.6,32.7c0,0-31.8,22.1-55.3,2.8l-5.1-35.5L368.1,488.8z"/>
	<path class="st10" d="M400.9,525.9c-5.1-8.2-15.6-11.1-24.2-6.8C384.5,524.9,393,526.4,400.9,525.9z"/>
	<path class="st10" d="M414,522.4c5.1-8.2,15.6-11.1,24.2-6.8C430.5,521.4,421.9,523,414,522.4z"/>
	<path class="st9" d="M368.1,488.8l4.7,29.6c0,0-4.9,14.5,0,28.8s-6,67.5-6,67.5s56.9,18.2,91.7-2.8c0,0-25.6-53.9-14.8-71.9
		c10.8-18,0.2-25,0.2-25l1.7-33.1l-7.8-2.3l-4.6,32.7c0,0-31.8,22.1-55.3,2.8l-5.1-35.5L368.1,488.8z"/>
	<path class="st11" d="M367.8,488.5l5,30.3c0,0-4.9,14.5,0,28.8s-6,67.5-6,67.5s56.9,18.3,91.7-2.7c0,0-25.6-53.9-14.8-71.9
		c10.8-18,0.2-25,0.2-25l1.7-33.1l-7.8-2.3l-4.6,32.7c0,0-31.8,22.1-55.3,2.8l-5.1-35.5L367.8,488.5z"/>
	<path class="st8" d="M391.2,626.5l12-1.6c0,0,13.8-17.8,23.7-4.1c0,0,4.1,8.8,9.2,10.4c3.5,1.1,7,1.8,10.6,2.3l-20.5,5.8
		c0,0-9,5.3-18.4,3.9c-5.6-0.9-11.2-0.4-16.6,1.4L391.2,626.5z"/>
	<path class="st9" d="M378,551.2c0,0,21.7,3.2,25.4-2.5L378,551.2z"/>
	<path class="st9" d="M419,547.5c0,0,4.1,4.1,20.7,1.2L419,547.5z"/>
	<path class="st9" d="M376.8,483.2c0,0,15.9,2.3,18.9,0.9L376.8,483.2z"/>
	<path class="st9" d="M411.9,483.2c0,0,15.9,2.3,18.9,0.9L411.9,483.2z"/>
	<path class="st9" d="M392.9,624.8c0,0,4.4,20.7,0,21.4s-10.6-3.4-10.6-3.9s2.8-13.6,2.8-13.6L392.9,624.8z"/>
	<path class="st6" d="M392.5,624.8c0,0,4.4,20.7,0,21.4s-10.6-3.4-10.6-3.9s2.8-13.6,2.8-13.6L392.5,624.8z"/>
	<path class="st9" d="M371.1,480.2c-1.9,4.5-2.6,9.8-0.6,14.2c1.6,3.4,4.6,6.1,5.2,9.8c0.7,4.6-2.7,9.3-1.4,13.8
		c0.5,1.7,1.6,3.2,2.8,4.5c3.5,4.1,8.2,8.2,13.6,7.8c0.9-8.4-6.4-16.5-4-24.6c0.9-2.9,2.8-5.3,4-8.1c2-4.6,1.7-9.8,1-14.7
		c-1.1-7.2-3.7-16-10.8-19.3c-3.3-1.5-7.9-1.7-9.1,2.5c-0.6,2.2,0.9,4.3,1.1,6.5C373.2,475.6,372.2,477.7,371.1,480.2z"/>
	<path class="st5" d="M371.1,479.5c-1.9,4.5-2.6,9.8-0.6,14.2c1.6,3.4,4.6,6.1,5.2,9.8c0.7,4.6-2.7,9.3-1.4,13.8
		c0.5,1.7,1.6,3.2,2.8,4.5c3.5,4.1,8.2,8.2,13.6,7.8c0.9-8.4-6.4-16.5-4-24.6c0.9-2.9,2.8-5.3,4-8.1c2-4.6,1.7-9.8,1-14.7
		c-1.1-7.2-3.7-16-10.8-19.3c-3.3-1.5-7.9-1.7-9.1,2.5c-0.6,2.2,0.9,4.3,1.1,6.5C373.2,474.9,372.2,477,371.1,479.5z"/>
	<path class="st9" d="M372.9,426.3c0,0,33.7-4.6,34.6,2.3s30.7,18.2,30.7,18.2l-7.4-18.2L417.2,406c0,0-24.9-1.8-26,0
		s-14.3,7.8-14.3,7.8L372.9,426.3z"/>
	<path class="st5" d="M372.9,425.8c0,0,33.7-4.6,34.6,2.3s30.7,18.2,30.7,18.2l-7.4-18.2l-13.6-22.6c0,0-24.9-1.8-26,0
		s-14.3,7.8-14.3,7.8L372.9,425.8z"/>
	<path class="st9" d="M431.5,475.1c1.6,2,2.8,4.3,3.4,6.8c0.6,2.4,0.6,4.9,1.1,7.2c1.1,5.1,4.5,9.3,8,13.2c1.1,1.4,2.5,2.6,4.1,3.4
		s3.6,1,5.1,0c-1.4-1.2-2.2-2.9-2.7-4.7c-0.7-2.4-1-5-0.9-7.5c0.2-4.3,1.4-8.7-0.4-12.6c-1-2.2-2.9-3.9-4.9-5.5
		c-1.3-1.1-2.8-2-4.3-2.8c-2.9-1.4-6.1-2.1-9.3-2.4C426.6,469.8,430.2,473.5,431.5,475.1z"/>
	<path class="st5" d="M431.5,474.4c1.6,2,2.8,4.3,3.4,6.8c0.6,2.4,0.6,4.9,1.1,7.2c1.1,5.1,4.5,9.3,8,13.2c1.1,1.4,2.5,2.6,4.1,3.4
		s3.6,1,5.1,0c-1.4-1.2-2.2-2.9-2.7-4.7c-0.7-2.4-1-5-0.9-7.5c0.2-4.3,1.4-8.7-0.4-12.6c-1-2.2-2.9-3.9-4.9-5.5
		c-1.3-1.1-2.8-2.1-4.3-2.9c-2.9-1.4-6.1-2.1-9.3-2.4C426.6,469.1,430.2,472.8,431.5,474.4z"/>
</g>
<g id="Money">
	<circle class="st12" cx="396.1" cy="173.7" r="78.2"/>
	<path class="st13" d="M392.5,219.9v-11.4c-5.8,0-11.7-2.2-15.3-5l2.5-7.5c4.2,3.1,9.2,4.7,14.2,4.7c7,0,11.7-4.7,11.7-11.1
		c0-6.1-3.9-10-11.1-13.4c-10-4.5-16.4-9.7-16.4-19.5c0-9.5,5.8-16.4,15-18.1v-11.4h6.1V138c4.5,0,9.2,1.4,12.8,3.9l-2.5,7.5
		c-3.6-2.5-8.1-3.9-12.5-3.9c-7.5,0-10.6,5.3-10.6,9.7c0,5.8,3.6,8.9,12.2,12.8c10.3,4.7,15.3,10.6,15.3,20.6
		c0,8.9-5.6,17.3-15.6,19.2v11.7h-5.8V219.9z"/>
</g>
<g>
	
		<linearGradient id="SVGID_2_" gradientUnits="userSpaceOnUse" x1="596.4366" y1="-227.1498" x2="596.4366" y2="-386.0757" gradientTransform="matrix(1 0 0 1 0 618)">
		<stop  offset="0" style="stop-color:#808080;stop-opacity:0.25"/>
		<stop  offset="0.54" style="stop-color:#808080;stop-opacity:0.12"/>
		<stop  offset="1" style="stop-color:#808080;stop-opacity:0.1"/>
	</linearGradient>
	<circle class="st14" cx="596.4" cy="311.4" r="79.5"/>
	
		<ellipse transform="matrix(0.7071 -0.7071 0.7071 0.7071 -45.4918 512.9476)" class="st15" cx="596.4" cy="311.4" rx="78.3" ry="78.3"/>
	<circle class="st16" cx="596.4" cy="311.4" r="62.2"/>
	<rect x="594.7" y="260.2" class="st17" width="3.5" height="54.9"/>
	<g class="st18">
		<rect x="600.2" y="310" width="49.6" height="4.3"/>
		<rect x="577.6" y="286" transform="matrix(0.4639 -0.8859 0.8859 0.4639 41.8442 676.4094)" width="4.3" height="35.3"/>
		<ellipse transform="matrix(0.1602 -0.9871 0.9871 0.1602 192.7571 850.9029)" cx="596.4" cy="312.2" rx="6.7" ry="6.7"/>
	</g>
	<rect x="600.2" y="309" class="st19" width="49.6" height="4.3"/>
	
		<rect x="577.5" y="285.1" transform="matrix(0.4639 -0.8859 0.8859 0.4639 42.6039 675.8439)" class="st19" width="4.3" height="35.3"/>
	
		<ellipse transform="matrix(0.1602 -0.9871 0.9871 0.1602 193.5318 850.2438)" class="st19" cx="596.4" cy="311.4" rx="6.7" ry="6.7"/>
	<g class="st18">
		<path d="M539.1,318.8c0-34.3,27.9-62.2,62.2-62.2c19.6,0,37.9,9.2,49.6,24.7c-10.6-19.2-31-32.2-54.5-32.2
			c-34.3,0-62.2,27.9-62.2,62.2c0,13.5,4.3,26.7,12.6,37.3C541.7,339.4,539.1,329.2,539.1,318.8z"/>
	</g>
	<path class="st7" d="M642.2,281.6c0,0-0.8,2-0.4,2.6"/>
	<path class="st7" d="M610.2,281c0,0,0.4,2,0,2.6"/>
</g>
<g>
	<path class="st20" d="M125.3,343.8h9.2c1.7,0,3,1.3,3,3v34.2c0,1.7-1.3,3-3,3h-9.2c-1.7,0-3-1.3-3-3v-34.2
		C122.3,345.1,123.7,343.8,125.3,343.8z"/>
	<path class="st20" d="M154.3,319.6h9.2c1.7,0,3,1.3,3,3v58.3c0,1.7-1.3,3-3,3h-9.2c-1.7,0-3-1.3-3-3v-58.3
		C151.3,321,152.6,319.6,154.3,319.6z"/>
	<path class="st20" d="M183.3,302.8h9.2c1.7,0,3,1.3,3,3v75.1c0,1.7-1.3,3-3,3h-9.2c-1.7,0-3-1.3-3-3v-75.1
		C180.3,304.1,181.6,302.8,183.3,302.8z"/>
	<path class="st20" d="M212.3,286.8h9.2c1.7,0,3,1.3,3,3v91.1c0,1.7-1.3,3-3,3h-9.2c-1.7,0-3-1.3-3-3v-91.1
		C209.3,288.1,210.6,286.8,212.3,286.8z"/>
	<path class="st20" d="M241.3,258.8h9.2c1.7,0,3,1.3,3,3v119.1c0,1.7-1.3,3-3,3h-9.2c-1.7,0-3-1.3-3-3V261.8
		C238.3,260.2,239.6,258.8,241.3,258.8z"/>
	<path class="st21" d="M127.3,341.8h9.2c1.7,0,3,1.3,3,3v34.2c0,1.7-1.3,3-3,3h-9.2c-1.7,0-3-1.3-3-3v-34.2
		C124.3,343.1,125.7,341.8,127.3,341.8z"/>
	<path class="st21" d="M156.3,317.5h9.2c1.7,0,3,1.3,3,3v58.3c0,1.7-1.3,3-3,3h-9.2c-1.7,0-3-1.3-3-3v-58.3
		C153.3,319,154.6,317.5,156.3,317.5z"/>
	<path class="st21" d="M185.3,300.8h9.2c1.7,0,3,1.3,3,3v75.1c0,1.7-1.3,3-3,3h-9.2c-1.7,0-3-1.3-3-3v-75.1
		C182.3,302.1,183.6,300.8,185.3,300.8z"/>
	<path class="st21" d="M214.3,284.6h9.2c1.7,0,3,1.3,3,3v91.1c0,1.7-1.3,3-3,3h-9.2c-1.7,0-3-1.3-3-3v-91
		C211.3,286.1,212.6,284.6,214.3,284.6z"/>
	<path class="st21" d="M243.3,256.7h9.2c1.7,0,3,1.3,3,3v119.1c0,1.7-1.3,3-3,3h-9.2c-1.7,0-3-1.3-3-3V259.7
		C240.3,258.2,241.6,256.7,243.3,256.7z"/>
	<polyline class="st21" points="131.8,326.3 160.8,302.1 190.1,285.6 219.1,269.7 248.1,241.7 	"/>
	<circle class="st22" cx="131" cy="327.6" r="2.8"/>
	<circle class="st22" cx="160" cy="303.5" r="2.8"/>
	<circle class="st22" cx="189.3" cy="286.8" r="2.8"/>
	<circle class="st22" cx="218.3" cy="270.8" r="2.8"/>
	<circle class="st22" cx="247.3" cy="242.8" r="2.8"/>
	<circle class="st21" cx="131.8" cy="326.3" r="2.8"/>
	<circle class="st21" cx="160.8" cy="302.1" r="2.8"/>
	<circle class="st21" cx="190.1" cy="285.6" r="2.8"/>
	<circle class="st21" cx="219.1" cy="269.7" r="2.8"/>
	<circle class="st21" cx="248.1" cy="241.7" r="2.8"/>
</g>
</svg>
