<svg width="512" height="512" viewBox="0 0 512 512" fill="none" xmlns="http://www.w3.org/2000/svg">
<rect width="512" height="512" fill="#E5E5E5"/>
<path d="M255.999 504.472C393.227 504.472 504.472 393.227 504.472 256C504.472 118.772 393.227 7.52733 255.999 7.52733C118.772 7.52733 7.52731 118.772 7.52731 256C7.52731 393.227 118.772 504.472 255.999 504.472Z" fill="#9F99FF"/>
<path d="M156.438 256C156.438 144.711 229.618 50.5154 330.469 18.8795C306.963 11.5058 281.94 7.52733 255.999 7.52733C118.771 7.52733 7.52731 118.771 7.52731 256C7.52731 393.228 118.771 504.472 255.999 504.472C281.94 504.472 306.97 500.491 330.477 493.116C229.626 461.482 156.438 367.289 156.438 256Z" fill="#8982FD"/>
<path d="M504.421 260.155H504.432C503.849 296.115 495.62 330.219 481.308 360.91L481.287 360.9C462.108 353.132 448.579 334.344 448.579 312.374C448.579 283.469 472.014 260.034 500.919 260.034C502.093 260.034 503.257 260.084 504.421 260.155Z" fill="#9F99FF"/>
<path d="M255.999 465.52C277.648 465.52 295.844 480.344 300.963 500.407C286.38 503.077 271.355 504.472 255.999 504.472C240.644 504.472 225.619 503.077 211.036 500.407C216.155 480.344 234.351 465.52 255.999 465.52Z" fill="#8982FD"/>
<path d="M315.967 354.678C332.698 354.678 346.267 368.247 346.267 384.978C346.267 401.719 332.698 415.278 315.967 415.278C299.226 415.278 285.657 401.719 285.657 384.978C285.657 368.247 299.226 354.678 315.967 354.678Z" fill="#9F99FF"/>
<path d="M370.907 326.766C382.741 326.766 392.335 317.173 392.335 305.339C392.335 293.504 382.741 283.911 370.907 283.911C359.072 283.911 349.479 293.504 349.479 305.339C349.479 317.173 359.072 326.766 370.907 326.766Z" fill="#9F99FF"/>
<path d="M324.759 248.312C356.604 248.312 382.418 222.497 382.418 190.652C382.418 158.808 356.604 132.993 324.759 132.993C292.915 132.993 267.1 158.808 267.1 190.652C267.1 222.497 292.915 248.312 324.759 248.312Z" fill="#9F99FF"/>
<path d="M94.8343 199.795C106.025 199.795 115.098 208.868 115.098 220.049C115.098 231.24 106.025 240.313 94.8343 240.313C83.6437 240.313 74.5808 231.24 74.5808 220.049C74.5808 208.868 83.6437 199.795 94.8343 199.795V199.795Z" fill="#8982FD"/>
<path d="M181.479 18.9087C183.727 27.2088 184.941 35.9405 184.941 44.9532C184.941 99.7823 140.49 144.234 85.651 144.234C69.1912 144.234 53.6648 140.219 39.9952 133.133H39.9852C70.7469 79.1574 121.16 37.8374 181.479 18.8986V18.9087Z" fill="#8982FD"/>
<path d="M437.641 75.6166C434.711 72.6679 429.946 72.6508 426.995 75.5794C424.046 78.5091 424.03 83.2754 426.958 86.2251C471.301 130.875 496.052 189.864 496.903 252.652C465.756 254.728 441.046 280.713 441.046 312.376C441.046 334.206 452.705 353.866 471.311 364.409C459.893 387.031 444.812 407.934 426.373 426.373C392.899 459.848 351.304 482.243 306.035 491.754C297.921 471.565 278.256 457.989 255.998 457.989C233.743 457.989 214.086 471.568 205.973 491.757C160.7 482.245 119.102 459.85 85.6249 426.373C40.1177 380.865 15.0547 320.358 15.0547 256C15.0547 215.917 24.78 177.331 43.1075 142.93C56.459 148.72 71.0249 151.764 85.656 151.764C98.2869 151.764 110.654 149.579 122.412 145.269C126.316 143.839 128.32 139.515 126.89 135.611C125.46 131.708 121.135 129.703 117.232 131.134C107.138 134.834 96.5144 136.709 85.657 136.709C73.4607 136.709 61.7251 134.386 50.663 129.8C60.4435 113.953 72.1279 99.1249 85.6269 85.6259C111.55 59.7028 142.346 40.4248 175.942 28.6239C176.912 33.9984 177.41 39.4643 177.41 44.9552C177.41 72.7853 164.98 98.8017 143.307 116.33C140.075 118.945 139.574 123.685 142.188 126.917C143.676 128.757 145.852 129.711 148.046 129.711C149.709 129.711 151.382 129.163 152.775 128.036C177.998 107.634 192.465 77.3519 192.465 44.9552C192.465 37.9207 191.772 30.9173 190.407 24.0523C211.485 18.1268 233.505 15.0547 256 15.0547C310.022 15.0547 361.081 32.5341 403.658 65.6022C406.942 68.1525 411.671 67.5583 414.22 64.2744C416.77 60.9915 416.176 56.2623 412.892 53.712C367.65 18.5734 313.397 0 256 0C187.619 0 123.333 26.6287 74.9802 74.9802C26.6287 123.333 0 187.619 0 256C0 324.38 26.6287 388.667 74.9802 437.019C123.332 485.371 187.619 511.999 256 511.999C324.38 511.999 388.667 485.37 437.019 437.019C485.371 388.667 511.999 324.38 511.999 256C512 187.961 485.592 123.901 437.641 75.6166V75.6166ZM221.247 494.463C227.729 481.538 241.051 473.045 256 473.045C270.949 473.045 284.275 481.536 290.758 494.462C279.344 496.101 267.737 496.945 256 496.945C244.264 496.945 232.659 496.102 221.247 494.463V494.463ZM456.102 312.376C456.102 289.1 473.94 269.918 496.661 267.765C495.28 296.688 488.8 324.674 477.677 350.699C464.378 342.668 456.102 328.291 456.102 312.376V312.376Z" fill="black"/>
<path d="M324.86 240.78C324.753 240.777 324.646 240.773 324.538 240.774C320.404 240.774 317.039 244.112 317.012 248.252C316.986 252.375 320.279 255.746 324.389 255.827C324.514 255.831 324.639 255.834 324.765 255.834C360.709 255.834 389.952 226.592 389.952 190.647C389.952 154.703 360.71 125.461 324.765 125.461C288.821 125.461 259.578 154.703 259.578 190.647C259.578 212.973 270.826 233.503 289.667 245.567C293.164 247.807 297.821 246.788 300.065 243.286C302.306 239.785 301.285 235.13 297.784 232.888C283.288 223.606 274.633 207.816 274.633 190.647C274.633 163.005 297.122 140.515 324.765 140.515C352.409 140.515 374.897 163.004 374.897 190.647C374.895 218.258 352.458 240.728 324.86 240.78V240.78Z" fill="black"/>
<path d="M94.8353 192.268C79.5147 192.268 67.0494 204.732 67.0494 220.054C67.0494 235.376 79.5137 247.84 94.8353 247.84C110.157 247.84 122.621 235.376 122.621 220.054C122.621 204.732 110.156 192.268 94.8353 192.268ZM94.8353 232.784C87.8158 232.784 82.1041 227.073 82.1041 220.053C82.1041 213.032 87.8148 207.322 94.8353 207.322C101.856 207.322 107.567 213.032 107.567 220.053C107.567 227.073 101.855 232.784 94.8353 232.784Z" fill="black"/>
</svg>
