<svg width="1079" height="529" viewBox="0 0 1079 529" fill="none" xmlns="http://www.w3.org/2000/svg">
<path d="M944.15 160.61C933.9 167.53 891.64 169.05 891.64 169.05C891.64 169.05 908.83 130.42 919.08 123.49C924.004 120.291 929.986 119.154 935.741 120.322C941.495 121.49 946.56 124.871 949.846 129.737C953.133 134.603 954.377 140.564 953.312 146.338C952.246 152.112 948.956 157.237 944.15 160.61Z" fill="#6C63FF"/>
<path d="M841.17 188.96C850.79 196.73 892.76 201.86 892.76 201.86C892.76 201.86 878.94 161.86 869.32 154.12C864.687 150.526 858.829 148.892 853.004 149.57C847.18 150.247 841.853 153.181 838.168 157.742C834.482 162.303 832.733 168.127 833.294 173.964C833.855 179.801 836.683 185.185 841.17 188.96V188.96Z" fill="#6C63FF"/>
<path d="M944.15 160.61C933.9 167.53 891.64 169.05 891.64 169.05C891.64 169.05 908.83 130.42 919.08 123.49C924.004 120.291 929.986 119.154 935.741 120.322C941.495 121.49 946.56 124.871 949.846 129.737C953.133 134.603 954.377 140.564 953.312 146.338C952.246 152.112 948.956 157.237 944.15 160.61Z" fill="#FC6681"/>
<path d="M841.17 188.96C850.79 196.73 892.76 201.86 892.76 201.86C892.76 201.86 878.94 161.86 869.32 154.12C864.687 150.526 858.829 148.892 853.004 149.57C847.18 150.247 841.853 153.181 838.168 157.742C834.482 162.303 832.733 168.127 833.294 173.964C833.855 179.801 836.683 185.185 841.17 188.96V188.96Z" fill="#FC6681"/>
<path d="M1078.5 508.79L990.89 123.31H958.34C957.04 108.58 956.17 94.31 955.84 80.87C955.84 80.87 837.84 106.69 743.74 31.99C649.64 -42.71 539.01 38.45 539.01 38.45L538.58 38.14V37.99V38.18C530.9 32.74 424.92 -39.89 334.31 32.05C240.25 106.75 122.21 80.93 122.21 80.93C121.88 94.54 121 108.93 119.67 123.8H89.47L0 510.18C0 510.18 363.7 523.8 491.15 511.24C495.72 520.9 515.42 528.16 539.02 528.16C565.54 528.16 587.11 518.99 587.86 507.56C687.07 515.11 900.55 527.18 1078.5 508.79Z" fill="url(#paint0_linear)"/>
<path d="M98.84 126.7L11.25 505.04C11.25 505.04 493.42 523.1 532.25 497.82C532.25 497.82 831.58 528.07 1067.25 503.69L981.47 126.26L98.84 126.7Z" fill="#E2E2EC"/>
<path opacity="0.1" d="M128.64 139.77L46.98 492.5C46.98 492.5 496.52 509.34 532.72 485.77C532.72 485.77 811.79 513.97 1031.51 491.24L951.51 139.35L128.64 139.77Z" fill="black"/>
<path d="M947.16 84.72C947.16 84.72 831.58 110 739.48 36.86C647.38 -36.28 539.02 43.18 539.02 43.18C539.02 43.18 430.67 -36.28 338.57 36.86C246.47 110 130.89 84.72 130.89 84.72C127.25 231.9 58.66 470.28 58.66 470.28C58.66 470.28 185.07 504.59 352.12 435.07C519.17 365.55 539.03 459.45 539.03 459.45C539.03 459.45 558.89 365.54 725.94 435.07C892.99 504.6 1019.4 470.28 1019.4 470.28C1019.4 470.28 950.77 231.9 947.16 84.72Z" fill="#F1F2FB"/>
<path opacity="0.1" d="M316 462.18C316 462.18 468.6 427.87 539 478.43C539 478.43 606.72 417.03 763.83 464.89" fill="black"/>
<path d="M539.02 522.65C565.452 522.65 586.88 513.351 586.88 501.88C586.88 490.409 565.452 481.11 539.02 481.11C512.588 481.11 491.16 490.409 491.16 501.88C491.16 513.351 512.588 522.65 539.02 522.65Z" fill="#E8EAF8"/>
<path opacity="0.1" d="M538.57 42.73C538.57 42.73 572.88 217 539.47 462.6Z" fill="black"/>
<path opacity="0.1" d="M163.95 139.35C163.95 139.35 235.82 156.05 298.03 139.35C360.24 122.65 474.46 68.02 512.03 139.35" stroke="black" stroke-width="4" stroke-miterlimit="10"/>
<path opacity="0.1" d="M163.95 170.05C163.95 170.05 235.82 186.75 298.03 170.05C360.24 153.35 494.94 154.25 512.03 170.05" stroke="black" stroke-width="4" stroke-miterlimit="10"/>
<path opacity="0.1" d="M163.95 224.18C163.95 224.18 235.82 240.88 298.03 224.18C360.24 207.48 474.46 152.85 512.03 224.18" stroke="black" stroke-width="4" stroke-miterlimit="10"/>
<path opacity="0.1" d="M163.95 254.92C163.95 254.92 235.82 271.62 298.03 254.92C360.24 238.22 494.94 239.12 512.03 254.92" stroke="black" stroke-width="4" stroke-miterlimit="10"/>
<path opacity="0.1" d="M914.1 139.35C914.1 139.35 842.23 156.05 780.02 139.35C717.81 122.65 603.59 68.02 566.02 139.35" stroke="black" stroke-width="4" stroke-miterlimit="10"/>
<path opacity="0.1" d="M914.1 170.05C914.1 170.05 842.23 186.75 780.02 170.05C717.81 153.35 583.11 154.25 566.02 170.05" stroke="black" stroke-width="4" stroke-miterlimit="10"/>
<path opacity="0.1" d="M914.1 224.18C914.1 224.18 842.23 240.88 780.02 224.18C717.81 207.48 603.59 152.85 566.02 224.18" stroke="black" stroke-width="4" stroke-miterlimit="10"/>
<path opacity="0.1" d="M914.1 254.92C914.1 254.92 842.23 271.62 780.02 254.92C717.81 238.22 583.11 239.12 566.02 254.92" stroke="black" stroke-width="4" stroke-miterlimit="10"/>
<defs>
<linearGradient id="paint0_linear" x1="539.25" y1="528.15" x2="539.25" y2="0.410007" gradientUnits="userSpaceOnUse">
<stop stop-color="#808080" stop-opacity="0.25"/>
<stop offset="0.54" stop-color="#808080" stop-opacity="0.12"/>
<stop offset="1" stop-color="#808080" stop-opacity="0.1"/>
</linearGradient>
</defs>
</svg>
