<svg width="442" height="512" viewBox="0 0 442 512" fill="none" xmlns="http://www.w3.org/2000/svg">
<path d="M432.529 434.032L291 224.687V68.383H292.808C311.662 68.383 327 53.045 327 34.192C327 15.338 311.662 0 292.808 0H149.192C130.338 0 115 15.338 115 34.192C115 53.045 130.338 68.383 149.192 68.383H151V224.687L9.47199 434.032C-1.06601 449.618 -2.08901 468.845 6.73499 485.462C15.559 502.079 32.06 512 50.875 512H391.125C409.94 512 426.441 502.079 435.265 485.462C444.089 468.845 443.066 449.618 432.529 434.032ZM169.284 233.351C170.402 231.697 171 229.747 171 227.75V68.383H181.671C187.194 68.383 191.671 63.906 191.671 58.383C191.671 52.86 187.194 48.383 181.671 48.383H149.192C141.366 48.383 135 42.017 135 34.191C135 26.366 141.366 20 149.192 20H292.808C300.634 20 307 26.367 307 34.192C307 42.017 300.634 48.383 292.808 48.383H260.671C255.148 48.383 250.671 52.86 250.671 58.383C250.671 63.906 255.148 68.383 260.671 68.383H271V227.75C271 229.746 271.598 231.697 272.716 233.351L314.979 295.866C304.914 299.461 293.95 302.046 278.079 302.046C254.905 302.046 241.07 296.463 226.422 290.553C211.284 284.445 195.631 278.128 170.672 278.128C156.73 278.128 145.593 280.096 135.786 282.9L169.284 233.351ZM417.601 476.082C412.308 486.049 402.411 492 391.125 492H50.875C39.589 492 29.692 486.049 24.399 476.082C19.106 466.115 19.72 454.582 26.04 445.233L116.709 311.118C118.279 310.503 119.841 309.883 121.4 309.263C135.789 303.536 149.38 298.127 170.673 298.127C191.749 298.127 204.956 303.457 218.939 309.099C234.712 315.464 251.022 322.045 278.08 322.045C299.522 322.045 313.632 317.928 326.502 312.91L415.96 445.233C422.28 454.583 422.894 466.115 417.601 476.082Z" fill="#9F99FF"/>
</svg>
