<svg width="512" height="512" viewBox="0 0 512 512" fill="none" xmlns="http://www.w3.org/2000/svg">
<path d="M501.987 197.521C501.987 149.769 463.275 111.057 415.523 111.057C406.574 111.057 397.944 112.417 389.825 114.94C377.04 54.977 323.776 9.99899 260 9.99899C203.461 9.99899 155.185 45.348 136.048 95.148C127.91 91.218 118.783 89.014 109.139 89.014C74.92 89.014 47.179 116.754 47.179 150.974C47.179 155.658 47.716 160.213 48.701 164.6L52.863 179.873C27.173 195.482 10.013 223.73 10.013 255.985C10.013 305.135 49.858 344.98 99.008 344.98C124.404 344.98 147.313 334.342 163.527 317.28C183.377 347.228 217.379 366.979 255.999 366.979C288.612 366.979 317.934 352.896 338.22 330.481C352.212 339.646 368.939 344.98 386.914 344.98C434.905 344.98 474.017 306.991 475.836 259.446C491.96 243.741 501.987 221.807 501.987 197.521Z" fill="#9F99FF"/>
<path d="M256 376.979C219.295 376.979 184.998 360.456 162.137 332.262C144.444 346.988 122.424 354.98 99.008 354.98C88.164 354.98 77.498 353.235 67.311 349.792C62.079 348.024 59.269 342.351 61.037 337.119C62.805 331.888 68.479 329.074 73.71 330.846C81.833 333.589 90.344 334.981 99.008 334.981C120.872 334.981 141.211 326.248 156.279 310.391C158.376 308.183 161.362 307.052 164.4 307.318C167.434 307.584 170.181 309.217 171.863 311.756C190.633 340.073 222.086 356.98 256 356.98C284.44 356.98 311.706 344.877 330.807 323.772C334.113 320.121 339.583 319.419 343.7 322.117C356.549 330.533 371.493 334.981 386.916 334.981C429.548 334.981 464.218 301.634 465.846 259.064C465.944 256.501 467.023 254.073 468.861 252.283C483.775 237.755 491.988 218.306 491.988 197.52C491.988 155.356 457.686 121.054 415.523 121.054C407.769 121.054 400.122 122.209 392.793 124.488C390.109 125.321 387.197 124.988 384.772 123.568C382.347 122.147 380.63 119.772 380.044 117.023C368.059 60.805 317.573 19.999 260 19.999C209.542 19.999 163.48 51.641 145.381 98.736C144.378 101.346 142.328 103.418 139.728 104.447C137.128 105.475 134.216 105.37 131.698 104.154C124.636 100.744 117.047 99.015 109.138 99.015C80.487 99.015 57.177 122.325 57.177 150.976C57.177 154.712 57.592 158.488 58.409 162.2L62.51 177.246C63.682 181.548 61.864 186.106 58.054 188.42C34.233 202.892 20.012 228.151 20.012 255.985C20.012 266.215 21.936 276.165 25.731 285.556C27.8 290.677 25.326 296.504 20.205 298.573C15.084 300.643 9.257 298.169 7.188 293.048C2.427 281.264 0.0130005 268.794 0.0130005 255.984C0.0130005 223.658 15.314 194.107 41.312 175.521L39.052 167.227C39.012 167.081 38.976 166.936 38.943 166.789C37.772 161.573 37.178 156.253 37.178 150.974C37.178 111.295 69.459 79.014 109.138 79.014C116.537 79.014 123.739 80.11 130.656 82.282C141.245 59.615 157.555 40.193 178.264 25.704C202.302 8.89 230.565 0 260 0C292.88 0 324.974 11.452 350.37 32.246C372.721 50.548 389.053 75.323 397.075 102.821C403.128 101.648 409.3 101.056 415.522 101.056C468.712 101.056 511.986 144.33 511.986 197.521C511.986 222.424 502.647 245.801 485.6 263.786C483.721 287.917 473.171 310.32 455.634 327.24C437.092 345.128 412.687 354.98 386.916 354.98C370.386 354.98 354.291 350.899 339.896 343.113C317.457 364.729 287.323 376.979 256 376.979Z" fill="black"/>
<path d="M38.999 331.708C36.596 331.708 34.186 330.848 32.27 329.103L31.849 328.716C27.788 324.973 27.531 318.647 31.274 314.586C35.017 310.526 41.344 310.267 45.403 314.012L45.733 314.315C49.816 318.034 50.113 324.357 46.395 328.441C44.423 330.607 41.716 331.708 38.999 331.708Z" fill="black"/>
<path d="M141.062 227.987C156.525 227.987 169.06 215.452 169.06 199.989C169.06 184.526 156.525 171.991 141.062 171.991C125.599 171.991 113.064 184.526 113.064 199.989C113.064 215.452 125.599 227.987 141.062 227.987Z" fill="#9F99FF"/>
<path d="M255.996 227.987C271.459 227.987 283.994 215.452 283.994 199.989C283.994 184.526 271.459 171.991 255.996 171.991C240.533 171.991 227.998 184.526 227.998 199.989C227.998 215.452 240.533 227.987 255.996 227.987Z" fill="#9F99FF"/>
<path d="M370.94 227.987C386.403 227.987 398.938 215.452 398.938 199.989C398.938 184.526 386.403 171.991 370.94 171.991C355.477 171.991 342.942 184.526 342.942 199.989C342.942 215.452 355.477 227.987 370.94 227.987Z" fill="#9F99FF"/>
<path d="M141.065 237.987C120.113 237.987 103.067 220.941 103.067 199.989C103.067 179.037 120.113 161.991 141.065 161.991C162.017 161.991 179.063 179.037 179.063 199.989C179.063 220.941 162.017 237.987 141.065 237.987ZM141.065 181.99C131.141 181.99 123.066 190.065 123.066 199.989C123.066 209.913 131.141 217.988 141.065 217.988C150.989 217.988 159.064 209.913 159.064 199.989C159.064 190.065 150.99 181.99 141.065 181.99Z" fill="black"/>
<path d="M256 237.987C235.048 237.987 218.002 220.941 218.002 199.989C218.002 179.037 235.048 161.991 256 161.991C276.952 161.991 293.998 179.037 293.998 199.989C293.998 220.941 276.952 237.987 256 237.987ZM256 181.99C246.076 181.99 238.001 190.065 238.001 199.989C238.001 209.913 246.076 217.988 256 217.988C265.924 217.988 273.999 209.913 273.999 199.989C273.999 190.065 265.924 181.99 256 181.99Z" fill="black"/>
<path d="M370.936 237.987C349.984 237.987 332.938 220.941 332.938 199.989C332.938 179.037 349.984 161.991 370.936 161.991C391.888 161.991 408.934 179.037 408.934 199.989C408.934 220.941 391.888 237.987 370.936 237.987ZM370.936 181.99C361.012 181.99 352.937 190.065 352.937 199.989C352.937 209.913 361.012 217.988 370.936 217.988C380.86 217.988 388.935 209.913 388.935 199.989C388.935 190.065 380.86 181.99 370.936 181.99Z" fill="black"/>
</svg>
